<?xml version="1.0" encoding="UTF-8" standalone="no"?>
<svg width="11px" height="12px" viewBox="0 0 11 12" version="1.1" xmlns="http://www.w3.org/2000/svg" xmlns:xlink="http://www.w3.org/1999/xlink">
    <!-- Generator: Sketch 3.6.1 (26313) - http://www.bohemiancoding.com/sketch -->
    <title>Shape</title>
    <desc>Created with Sketch.</desc>
    <defs></defs>
    <g id="Page-1" stroke="none" stroke-width="1" fill="none" fill-rule="evenodd">
        <g id="noun_560181_cc" fill="#4A4A4A">
            <g id="Group">
                <g id="Shape">
                    <path d="M0.919,0.001 C1.015,0.001 1.1,0.038 1.174,0.112 L6.329,5.267 C6.403,5.341 6.44,5.426 6.44,5.522 C6.44,5.617 6.403,5.702 6.329,5.776 L1.174,10.931 C1.1,11.005 1.015,11.042 0.919,11.042 C0.823,11.042 0.738,11.005 0.664,10.931 L0.111,10.378 C0.037,10.304 8.8817842e-16,10.219 8.8817842e-16,10.123 C8.8817842e-16,10.028 0.037,9.943 0.111,9.869 L4.459,5.521 L0.111,1.173 C0.037,1.099 8.8817842e-16,1.014 8.8817842e-16,0.919 C8.8817842e-16,0.823 0.037,0.738 0.111,0.664 L0.664,0.111 C0.738,0.037 0.823,0 0.919,0 L0.919,0.001 L0.919,0.001 Z M5.167,0.001 C5.263,0.001 5.348,0.038 5.422,0.112 L10.577,5.267 C10.651,5.341 10.688,5.426 10.688,5.522 C10.688,5.617 10.651,5.702 10.577,5.776 L5.422,10.931 C5.348,11.005 5.263,11.042 5.167,11.042 C5.071,11.042 4.986,11.005 4.912,10.931 L4.359,10.378 C4.285,10.304 4.248,10.219 4.248,10.123 C4.248,10.028 4.285,9.943 4.359,9.869 L8.707,5.521 L4.359,1.173 C4.285,1.099 4.248,1.014 4.248,0.919 C4.248,0.823 4.285,0.738 4.359,0.664 L4.912,0.111 C4.986,0.037 5.071,0 5.167,0 L5.167,0.001 L5.167,0.001 Z"></path>
                </g>
            </g>
        </g>
    </g>
</svg>