<?xml version="1.0" encoding="UTF-8"?>
<svg width="89px" height="78px" viewBox="0 0 89 78" version="1.1" xmlns="http://www.w3.org/2000/svg" xmlns:xlink="http://www.w3.org/1999/xlink">
    <!-- Generator: Sketch 3.6.1 (26313) - http://www.bohemiancoding.com/sketch -->
    <title>asseticon10</title>
    <desc>Created with Sketch.</desc>
    <defs></defs>
    <g id="Page-1" stroke="none" stroke-width="1" fill="none" fill-rule="evenodd">
        <g id="asseticon10" fill="#000000">
            <path d="M82.4110613,71.6335259 L59.3067453,71.6335259 L59.3067453,43.343809 C59.3067453,41.8206014 57.8961792,40.584375 56.1581604,40.584375 L32.5500708,40.584375 C30.8120519,40.584375 29.4014858,41.8206014 29.4014858,43.343809 L29.4014858,71.6335259 L6.29716981,71.6335259 L6.29716981,32.7531014 L44.3572642,6.28461085 L82.4110613,32.7531014 L82.4110613,71.6335259 L82.4110613,71.6335259 Z M53.0095755,71.6335259 L35.6986557,71.6335259 L35.6986557,46.1032429 L53.0095755,46.1032429 L53.0095755,71.6335259 L53.0095755,71.6335259 Z M87.518066,29.2541392 L46.315684,0.600176887 C45.1695991,-0.200058962 43.5449292,-0.200058962 42.3988443,0.600176887 L1.19646226,29.2541392 C0.434504717,29.7784316 0,30.5731486 0,31.4175354 L0,74.3929599 C0,75.9161675 1.41056604,77.1523939 3.14858491,77.1523939 L32.5500708,77.1523939 L56.1581604,77.1523939 L85.5596462,77.1523939 C87.2976651,77.1523939 88.7082311,75.9161675 88.7082311,74.3929599 L88.7082311,31.4175354 C88.7082311,30.5786675 88.2737264,29.7784316 87.518066,29.2541392 L87.518066,29.2541392 L87.518066,29.2541392 Z" id="Shape"></path>
        </g>
    </g>
</svg>