<?xml version="1.0" encoding="UTF-8"?>
<svg width="75px" height="46px" viewBox="0 0 75 46" version="1.1" xmlns="http://www.w3.org/2000/svg" xmlns:xlink="http://www.w3.org/1999/xlink">
    <!-- Generator: Sketch 3.6.1 (26313) - http://www.bohemiancoding.com/sketch -->
    <title>asseticon06</title>
    <desc>Created with Sketch.</desc>
    <defs></defs>
    <g id="Page-1" stroke="none" stroke-width="1" fill="none" fill-rule="evenodd">
        <g id="asseticon06" transform="translate(-2.000000, -1.000000)" fill="#000000">
            <path d="M68.0362813,21.532 C64.3380937,19.464 62.3038437,16.8 62.3038437,14.03 C62.3038437,11.26 64.3380937,8.594 68.0362813,6.528 C69.7175,5.588 70.1396562,3.716 68.9818125,2.356 C67.8585313,1.038 65.4440937,0.678 63.8270625,1.59 C58.0674687,4.81 54.8975937,9.228 54.8975937,14.03 C54.8975937,18.832 58.0674687,23.25 63.8270625,26.47 C67.52525,28.538 69.5595,31.202 69.5595,33.972 C69.5595,36.742 67.52525,39.408 63.8270625,41.474 C62.1458437,42.414 61.7236875,44.286 62.884,45.646 C63.57525,46.458 64.7158125,46.942 65.9329063,46.942 C66.6883438,46.942 67.4141563,46.758 68.0362813,46.41 C73.795875,43.19 76.96575,38.772 76.96575,33.97 C76.96575,29.168 73.795875,24.752 68.0362813,21.532 L68.0362813,21.532 Z M15.1729375,21.532 C11.47475,19.464 9.4405,16.8 9.4405,14.03 C9.4405,11.26 11.47475,8.594 15.1729375,6.528 C16.8541562,5.588 17.2763125,3.716 16.116,2.356 C14.99025,1.038 12.5782812,0.68 10.9637187,1.592 C5.204125,4.812 2.03425,9.23 2.03425,14.032 C2.03425,18.834 5.204125,23.252 10.9637187,26.472 C14.6619062,28.54 16.6961562,31.204 16.6961562,33.974 C16.6961562,36.744 14.6619063,39.41 10.9637187,41.476 C9.2825,42.416 8.86034375,44.288 10.0206562,45.648 C10.7119062,46.46 11.8524687,46.944 13.0695625,46.944 C13.825,46.944 14.5508125,46.76 15.1729375,46.412 C20.9325312,43.192 24.1024062,38.774 24.1024062,33.972 C24.1024062,29.17 20.9325313,24.752 15.1729375,21.532 L15.1729375,21.532 Z M41.6058438,21.532 C37.9076563,19.464 35.8734063,16.8 35.8734063,14.03 C35.8734063,11.26 37.9076563,8.594 41.6058438,6.528 C42.4180625,6.072 42.966125,5.388 43.143875,4.6 C43.321625,3.81 43.1093125,3.014 42.5489063,2.354 C41.425625,1.034 39.0111875,0.682 37.396625,1.59 C31.6370313,4.81 28.4671563,9.228 28.4671563,14.03 C28.4671563,18.832 31.6370313,23.25 37.396625,26.47 C41.0948125,28.538 43.1290625,31.202 43.1290625,33.972 C43.1290625,36.742 41.0948125,39.408 37.396625,41.474 C35.7154063,42.414 35.29325,44.286 36.4535625,45.646 C37.1448125,46.458 38.285375,46.942 39.5024688,46.942 C40.2579063,46.942 40.9837188,46.758 41.6058437,46.41 C47.3654375,43.19 50.5353125,38.772 50.5353125,33.97 C50.5353125,29.168 47.3654375,24.752 41.6058438,21.532 L41.6058438,21.532 Z" id="Shape"></path>
        </g>
    </g>
</svg>