<?xml version="1.0" encoding="UTF-8"?>
<svg width="79px" height="80px" viewBox="0 0 79 80" version="1.1" xmlns="http://www.w3.org/2000/svg" xmlns:xlink="http://www.w3.org/1999/xlink">
    <!-- Generator: Sketch 3.6.1 (26313) - http://www.bohemiancoding.com/sketch -->
    <title>asseticon02</title>
    <desc>Created with Sketch.</desc>
    <defs></defs>
    <g id="Page-1" stroke="none" stroke-width="1" fill="none" fill-rule="evenodd">
        <g id="asseticon02" fill="#000000">
            <path d="M16.6464286,24 L47.3059524,24 C63.4821429,24 69.125,35.1111111 69.125,43.1111111 C69.125,56.7111111 59.4380952,63.0222222 45.8011905,63.0222222 L34.9857143,63.0222222 L34.9857143,80 L16.6464286,80 L16.6464286,24 L16.6464286,24 Z M34.9857143,49.6888889 L42.0392857,49.6888889 C46.8357143,49.6888889 51.8202381,49.3333333 51.8202381,43.7333333 C51.8202381,38.6666667 47.6821429,38.3111111 43.1678571,38.3111111 L34.9857143,38.3111111 L34.9857143,49.6888889 L34.9857143,49.6888889 Z" id="Shape"></path>
            <path d="M78.5297619,22.6666667 L39.5,11.3777778 L0.470238095,22.6666667 L0.470238095,11.2 L39.5,0 L78.5297619,11.2 L78.5297619,22.6666667 Z" id="Shape"></path>
        </g>
    </g>
</svg>