<?xml version="1.0" encoding="UTF-8"?>
<svg width="98px" height="76px" viewBox="0 0 98 76" version="1.1" xmlns="http://www.w3.org/2000/svg" xmlns:xlink="http://www.w3.org/1999/xlink">
    <!-- Generator: Sketch 3.6.1 (26313) - http://www.bohemiancoding.com/sketch -->
    <title>asseticon07</title>
    <desc>Created with Sketch.</desc>
    <defs></defs>
    <g id="Page-1" stroke="none" stroke-width="1" fill="none" fill-rule="evenodd">
        <g id="asseticon07" fill="#000000">
            <g id="Group">
                <path d="M64.2444444,53.0223721 L33.7555556,53.0223721 C31.9512667,53.0223721 30.4888889,54.2092093 30.4888889,55.6735349 C30.4888889,57.1378605 31.9512667,58.3246977 33.7555556,58.3246977 L45.7333333,58.3246977 L45.7333333,75.1153953 L52.2666667,75.1153953 L52.2666667,58.3246977 L64.2444444,58.3246977 C66.0487333,58.3246977 67.5111111,57.1378605 67.5111111,55.6735349 C67.5111111,54.2092093 66.0487333,53.0223721 64.2444444,53.0223721 L64.2444444,53.0223721 Z" id="Shape"></path>
                <path d="M2.17777778,12.3712093 L4.35555556,12.3712093 L4.35555556,75.1153953 C4.35555556,75.1224651 4.35773333,75.1277674 4.35773333,75.1339535 L10.8867111,75.1339535 C10.8867111,75.1268837 10.8888889,75.1215814 10.8888889,75.1153953 L10.8888889,21.4355349 C13.3432444,22.7354884 16.3311556,23.5900465 19.6,23.803907 L19.6,75.1153953 C19.6,75.1224651 19.6021778,75.1277674 19.6021778,75.1339535 L26.1311556,75.1339535 C26.1311556,75.1268837 26.1333333,75.1215814 26.1333333,75.1153953 L26.1333333,23.8595814 L71.8666667,23.8595814 L71.8666667,75.1153953 C71.8666667,75.1224651 71.8688444,75.1277674 71.8688444,75.1339535 L78.3978222,75.1339535 C78.3978222,75.1268837 78.4,75.1215814 78.4,75.1153953 L78.4,22.7876279 C82.3994889,21.5265581 85.5452889,19.234186 87.1111111,16.4124651 L87.1111111,75.1153953 C87.1111111,75.1224651 87.1132889,75.1277674 87.1132889,75.1339535 L93.6422667,75.1339535 C93.6422667,75.1268837 93.6444444,75.1215814 93.6444444,75.1153953 L93.6444444,12.3712093 L95.8222222,12.3712093 C97.0243556,12.3712093 98,11.5793953 98,10.6037674 C98,9.62813953 97.0243556,8.83632558 95.8222222,8.83632558 L93.6444444,8.83632558 L93.6444444,3.534 C93.6444444,2.06967442 92.1820667,0.882837209 90.3777778,0.882837209 C88.5734889,0.882837209 87.1111111,2.06967442 87.1111111,3.534 L87.1111111,8.83632558 L78.4,8.83632558 L78.4,3.534 C78.4,2.06967442 76.9376222,0.882837209 75.1333333,0.882837209 C73.3290444,0.882837209 71.8666667,2.06967442 71.8666667,3.534 L71.8666667,8.83632558 L26.1333333,8.83632558 L26.1333333,3.534 C26.1333333,2.06967442 24.6709556,0.882837209 22.8666667,0.882837209 C21.0623778,0.882837209 19.6,2.06967442 19.6,3.534 L19.6,8.83632558 L10.8888889,8.83632558 L10.8888889,3.534 C10.8888889,2.06967442 9.42651111,0.882837209 7.62222222,0.882837209 C5.81793333,0.882837209 4.35555556,2.06967442 4.35555556,3.534 L4.35555556,8.83632558 L2.17777778,8.83632558 C0.975644444,8.83632558 0,9.62813953 0,10.6037674 C0,11.5793953 0.975644444,12.3712093 2.17777778,12.3712093 L2.17777778,12.3712093 Z M83.8444444,12.3712093 C83.8444444,16.7571163 78.2268667,20.3246977 71.3222222,20.3246977 C64.4175778,20.3246977 58.8,16.7571163 58.8,12.3712093 L83.8444444,12.3712093 L83.8444444,12.3712093 Z M54.4444444,12.3712093 C54.4444444,16.7571163 48.8268667,20.3246977 41.9222222,20.3246977 C35.0175778,20.3246977 29.4,16.7571163 29.4,12.3712093 L54.4444444,12.3712093 L54.4444444,12.3712093 Z" id="Shape"></path>
            </g>
        </g>
    </g>
</svg>