<?xml version="1.0" encoding="UTF-8"?>
<svg width="96px" height="68px" viewBox="0 0 96 68" version="1.1" xmlns="http://www.w3.org/2000/svg" xmlns:xlink="http://www.w3.org/1999/xlink">
    <!-- Generator: Sketch 3.6.1 (26313) - http://www.bohemiancoding.com/sketch -->
    <title>asseticon04</title>
    <desc>Created with Sketch.</desc>
    <defs></defs>
    <g id="Page-1" stroke="none" stroke-width="1" fill="none" fill-rule="evenodd">
        <g id="asseticon04" transform="translate(-1.000000, 0.000000)" fill="#000000">
            <g id="Group">
                <path d="M82.4833333,38.4 L82.4833333,37 C82.4833333,28.4 75.3375,21.4 66.5583333,21.4 C62.8833333,21.4 59.6166667,22.6 56.9625,24.6 C56.5541667,24.8 56.1458333,24.8 55.9416667,24.4 C52.0625,19 45.7333333,15.4 38.5875,15.4 C26.95,15.4 17.3541667,24.6 17.3541667,36.2 C17.3541667,37 17.3541667,37.6 17.5583333,38.4 C17.5583333,39 16.9458333,39.2 16.7416667,39.2 L15.5166667,39.2 C7.35,39.2 0.816666667,45.8 1.02083333,53.8 C1.225,61.6 8.16666667,67.6 16.1291667,67.6 L81.6666667,67.6 C89.6291667,67.6 96.5708333,61.6 96.775,53.8 C96.9791667,46.2 91.0583333,40 83.5041667,39.2 C83.3,39 82.4833333,39.4 82.4833333,38.4 L82.4833333,38.4 Z" id="Shape"></path>
                <path d="M7.9625,29.4 C10.8208333,16.8 21.8458333,7 35.3208333,5.6 C35.7291667,5.6 35.9333333,5 35.525,4.8 C31.2375,1.6 25.725,2.22044605e-16 19.8041667,0.6 C10.4125,1.8 2.65416667,9 1.225,18.2 C0.6125,22.8 1.42916667,27.2 3.26666667,31 C3.47083333,31.4 4.08333333,31.6 4.69583333,31.4 C5.5125,31 6.125,30.8 6.94166667,30.4 C7.55416667,30.4 7.9625,30 7.9625,29.4 L7.9625,29.4 Z" id="Shape"></path>
            </g>
        </g>
    </g>
</svg>