<?xml version="1.0" encoding="UTF-8" standalone="no"?>
<svg width="100px" height="50px" viewBox="0 0 100 50" version="1.1" xmlns="http://www.w3.org/2000/svg" xmlns:xlink="http://www.w3.org/1999/xlink">
    <!-- Generator: Sketch 3.6.1 (26313) - http://www.bohemiancoding.com/sketch -->
    <title>noun_426785_cc</title>
    <desc>Created with Sketch.</desc>
    <defs></defs>
    <g id="Page-1" stroke="none" stroke-width="1" fill="none" fill-rule="evenodd">
        <g id="noun_426785_cc" fill="#000000">
            <path d="M50,13.4 C43.6,13.4 38.4,18.6 38.4,25 C38.4,31.4 43.6,36.6 50,36.6 C56.4,36.6 61.6,31.4 61.6,25 C61.6,18.6 56.4,13.4 50,13.4 L50,13.4 Z M57.1,23.7 L53.8,26.4 L54.8,30.4 C54.9,31 54.5,31.5 54,31.5 C53.8,31.5 53.7,31.5 53.5,31.4 L50,29.2 L46.5,31.4 C46.4,31.5 46.2,31.5 46,31.5 C45.5,31.5 45,31 45.2,30.4 L46.2,26.4 L43,23.7 C42.4,23.2 42.7,22.2 43.5,22.2 L47.7,21.9 L49.3,18 C49.4,17.6 49.8,17.5 50.1,17.5 C50.4,17.5 50.8,17.7 50.9,18 L52.5,21.9 L56.7,22.2 C57.3,22.2 57.7,23.2 57.1,23.7 L57.1,23.7 Z M66.9,42.4 L67,41.1 C67.1,39.7 68,38.5 69.4,38.1 L70.6,37.8 C72.5,37.3 73.5,35.2 72.7,33.4 L72.2,32.2 C71.7,30.9 72,29.4 73.1,28.5 L74.1,27.6 C75.6,26.3 75.6,24 74.1,22.7 L73.1,21.8 C72,20.9 71.7,19.4 72.3,18.1 L72.8,16.9 C73.6,15.1 72.6,13 70.7,12.5 L69.4,12 C68,11.6 67.1,10.4 67,9 L67,7.7 C66.9,5.9 65.4,4.6 63.7,4.6 L63.1,4.6 L61.8,4.8 L61.2,4.8 C60,4.8 58.9,4.2 58.3,3.1 L57.7,2 C57.1,0.9 56,0.3 54.8,0.3 C54.1,0.3 53.5,0.5 52.9,0.9 L52,1.7 C51.4,2.1 50.8,2.3 50.1,2.3 C49.4,2.3 48.8,2.1 48.2,1.7 L47.2,0.9 C46.6,0.5 45.9,0.3 45.3,0.3 C44.1,0.3 43,0.9 42.4,2 L41.8,3.1 C41.2,4.2 40.1,4.8 38.9,4.8 C38.7,4.8 38.5,4.8 38.3,4.7 L37,4.5 C36.8,4.5 36.6,4.4 36.4,4.4 C34.7,4.4 33.2,5.7 33.1,7.5 L33,8.9 C32.9,10.3 32,11.5 30.6,11.9 L29.4,12.2 C27.5,12.7 26.5,14.8 27.3,16.6 L27.8,17.8 C28.3,19.1 28,20.6 26.9,21.5 L25.9,22.4 C24.4,23.7 24.4,26 25.9,27.3 L26.9,28.2 C28,29.1 28.3,30.6 27.7,31.9 L27.2,33.1 C26.4,34.9 27.4,37 29.3,37.5 L30.5,37.9 C31.9,38.3 32.8,39.5 32.9,40.9 L33,42.2 C33.1,44 34.6,45.3 36.3,45.3 L36.9,45.3 L38.2,45.1 L38.8,45.1 C40,45.1 41.1,45.7 41.7,46.8 L42.3,47.9 C42.9,49 44,49.6 45.2,49.6 C45.9,49.6 46.5,49.4 47.1,49 L48.2,48.2 C48.8,47.8 49.4,47.6 50.1,47.6 C50.8,47.6 51.4,47.8 52,48.2 L53,49 C53.6,49.4 54.3,49.6 54.9,49.6 C56.1,49.6 57.2,49 57.8,47.9 L58.4,46.8 C59,45.7 60.1,45.1 61.3,45.1 C61.5,45.1 61.7,45.1 61.9,45.2 L63.2,45.4 C63.4,45.4 63.6,45.5 63.8,45.5 C65.3,45.5 66.8,44.1 66.9,42.4 L66.9,42.4 Z M50,41.1 C41.1,41.1 33.9,33.9 33.9,25 C33.9,16.1 41.1,8.9 50,8.9 C58.9,8.9 66.1,16.1 66.1,25 C66.1,33.9 58.9,41.1 50,41.1 L50,41.1 Z M80.1,25.1 C80.1,22.8 79.1,20.5 77.4,19 L77.3,18.9 L77.4,18.8 C77.6,18.3 77.8,17.8 77.9,17.2 L98.7,17.2 C99.4,17.2 99.8,18 99.3,18.5 L94.3,24.8 C94.1,25 94.1,25.3 94.3,25.5 L99.3,31.6 C99.7,32.1 99.4,32.9 98.7,32.9 L77.7,32.9 C77.6,32.4 77.5,31.9 77.3,31.5 L77.2,31.4 L77.3,31.3 C79.1,29.7 80.1,27.4 80.1,25.1 L80.1,25.1 Z M5.8,25.3 C6,25.1 6,24.8 5.8,24.6 L0.8,18.5 C0.4,18 0.7,17.2 1.4,17.2 L22.3,17.2 C22.4,17.7 22.5,18.2 22.7,18.6 L22.8,18.7 L22.7,18.8 C20.9,20.3 19.9,22.6 19.9,24.9 C19.9,27.2 20.9,29.5 22.6,31 L22.7,31.1 L22.6,31.2 C22.4,31.7 22.2,32.2 22.1,32.8 L1.4,32.8 C0.7,32.8 0.3,32 0.8,31.5 L5.8,25.3 L5.8,25.3 Z" id="Shape"></path>
        </g>
    </g>
</svg>