<?xml version="1.0" encoding="UTF-8" standalone="no"?>
<svg width="38px" height="38px" viewBox="0 0 38 38" version="1.1" xmlns="http://www.w3.org/2000/svg" xmlns:xlink="http://www.w3.org/1999/xlink">
    <!-- Generator: Sketch 3.6.1 (26313) - http://www.bohemiancoding.com/sketch -->
    <title>noun_443996_cc</title>
    <desc>Created with Sketch.</desc>
    <defs></defs>
    <g id="Page-1" stroke="none" stroke-width="1" fill="none" fill-rule="evenodd">
        <g id="noun_443996_cc" fill="#000000">
            <path d="M33.2,1.2 L19,15.5 L4.8,1.2 C3.8,0.2 2.2,0.2 1.3,1.2 C0.3,2.2 0.3,3.8 1.3,4.7 L15.5,19 L1.2,33.2 C0.2,34.2 0.2,35.8 1.2,36.7 C2.2,37.7 3.8,37.7 4.7,36.7 L19,22.5 L33.2,36.7 C34.2,37.7 35.8,37.7 36.7,36.7 C37.6,35.7 37.7,34.1 36.7,33.2 L22.5,19 L36.7,4.8 C37.7,3.8 37.7,2.2 36.7,1.3 C35.8,0.3 34.2,0.3 33.2,1.2 L33.2,1.2 Z" id="Shape"></path>
        </g>
    </g>
</svg>
