<?xml version="1.0" encoding="UTF-8" standalone="no"?>
<svg width="66px" height="88px" viewBox="0 0 66 88" version="1.1" xmlns="http://www.w3.org/2000/svg" xmlns:xlink="http://www.w3.org/1999/xlink">
    <!-- Generator: Sketch 3.6.1 (26313) - http://www.bohemiancoding.com/sketch -->
    <title>Slice 1</title>
    <desc>Created with Sketch.</desc>
    <defs></defs>
    <g id="Page-1" stroke="none" stroke-width="1" fill="none" fill-rule="evenodd">
        <g id="noun_528149_cc" fill="#F5A726">
            <g id="Group" transform="translate(0.000000, 0.637820)">
                <path d="M33,0.36218 C30.364488,0.36218 27.969941,0.89875 26.15625,1.86218 C24.342559,2.82561 23,4.31365 23,6.14343 L23,8.36218 L15,8.36218 C14.4477381,8.36223522 14.0000552,8.80991812 14,9.36218 L14,14.36218 L4,14.36218 C1.80121,14.36218 0,16.16346 0,18.36218 L0,82.36218 C0,84.56088 1.80121,86.36218 4,86.36218 L62,86.36218 C64.198788,86.36218 66,84.56088 66,82.36218 L66,18.36218 C66,16.16346 64.198788,14.36218 62,14.36218 L52,14.36218 L52,9.36218 C51.9999448,8.80991812 51.5522619,8.36223522 51,8.36218 L43,8.36218 L43,6.14343 C43,4.31365 41.657441,2.82561 39.84375,1.86218 C38.030059,0.89875 35.635512,0.36218 33,0.36218 L33,0.36218 Z M33,2.36218 C35.350488,2.36218 37.466441,2.87861 38.90625,3.64343 C40.346059,4.40825 41,5.32361 41,6.14343 L41,9.36218 C41.0000552,9.91444188 41.4477381,10.3621248 42,10.36218 L50,10.36218 L50,20.36218 L16,20.36218 L16,10.36218 L24,10.36218 C24.5522619,10.3621248 24.9999448,9.91444188 25,9.36218 L25,6.14343 C25,5.32361 25.653941,4.40825 27.09375,3.64343 C28.533559,2.87861 30.649512,2.36218 33,2.36218 L33,2.36218 Z M4,16.36218 L14,16.36218 L14,21.36218 C14.0000552,21.9144419 14.4477381,22.3621248 15,22.36218 L51,22.36218 C51.5522619,22.3621248 51.9999448,21.9144419 52,21.36218 L52,16.36218 L62,16.36218 C63.125344,16.36218 64,17.2369 64,18.36218 L64,82.36218 C64,83.48748 63.125344,84.36218 62,84.36218 L4,84.36218 C2.87465,84.36218 2,83.48748 2,82.36218 L2,18.36218 C2,17.2369 2.87465,16.36218 4,16.36218 L4,16.36218 Z M16,32.36218 C13.802705,32.36218 12,34.16489 12,36.36218 C12,38.55947 13.802705,40.36218 16,40.36218 C18.197295,40.36218 20,38.55947 20,36.36218 C20,34.16489 18.197295,32.36218 16,32.36218 L16,32.36218 Z M16,34.36218 C17.116414,34.36218 18,35.24577 18,36.36218 C18,37.47859 17.116414,38.36218 16,38.36218 C14.883586,38.36218 14,37.47859 14,36.36218 C14,35.24577 14.883586,34.36218 16,34.36218 L16,34.36218 Z M27.8125,35.36218 C27.2602153,35.4139567 26.8544733,35.9036453 26.90625,36.45593 C26.9580267,37.0082147 27.4477153,37.4139567 28,37.36218 L51,37.36218 C51.3606359,37.3672803 51.6960814,37.1778047 51.8778877,36.8663072 C52.0596941,36.5548096 52.0596941,36.1695504 51.8778877,35.8580528 C51.6960814,35.5465553 51.3606359,35.3570797 51,35.36218 L28,35.36218 C27.9376379,35.3563083 27.8748621,35.3563083 27.8125,35.36218 L27.8125,35.36218 Z M16,47.36218 C13.802705,47.36218 12,49.16488 12,51.36218 C12,53.55948 13.802705,55.36218 16,55.36218 C18.197295,55.36218 20,53.55948 20,51.36218 C20,49.16488 18.197295,47.36218 16,47.36218 L16,47.36218 Z M16,49.36218 C17.116414,49.36218 18,50.24578 18,51.36218 C18,52.47858 17.116414,53.36218 16,53.36218 C14.883586,53.36218 14,52.47858 14,51.36218 C14,50.24578 14.883586,49.36218 16,49.36218 L16,49.36218 Z M27.8125,50.36218 C27.2602153,50.4139567 26.8544733,50.9036453 26.90625,51.45593 C26.9580267,52.0082147 27.4477153,52.4139567 28,52.36218 L51,52.36218 C51.3606359,52.3672803 51.6960814,52.1778047 51.8778877,51.8663072 C52.0596941,51.5548096 52.0596941,51.1695504 51.8778877,50.8580528 C51.6960814,50.5465553 51.3606359,50.3570797 51,50.36218 L28,50.36218 C27.9376379,50.3563083 27.8748621,50.3563083 27.8125,50.36218 L27.8125,50.36218 Z M16,62.36218 C13.802705,62.36218 12,64.16488 12,66.36218 C12,68.55948 13.802705,70.36218 16,70.36218 C18.197295,70.36218 20,68.55948 20,66.36218 C20,64.16488 18.197295,62.36218 16,62.36218 L16,62.36218 Z M16,64.36218 C17.116414,64.36218 18,65.24578 18,66.36218 C18,67.47858 17.116414,68.36218 16,68.36218 C14.883586,68.36218 14,67.47858 14,66.36218 C14,65.24578 14.883586,64.36218 16,64.36218 L16,64.36218 Z M27.8125,65.36218 C27.2602153,65.4139567 26.8544733,65.9036453 26.90625,66.45593 C26.9580267,67.0082147 27.4477153,67.4139567 28,67.36218 L51,67.36218 C51.3606359,67.3672803 51.6960814,67.1778047 51.8778877,66.8663072 C52.0596941,66.5548096 52.0596941,66.1695504 51.8778877,65.8580528 C51.6960814,65.5465553 51.3606359,65.3570797 51,65.36218 L28,65.36218 C27.9376379,65.3563083 27.8748621,65.3563083 27.8125,65.36218 L27.8125,65.36218 Z" id="Shape"></path>
            </g>
        </g>
    </g>
</svg>