<?xml version="1.0" encoding="UTF-8" standalone="no"?>
<svg width="92px" height="86px" viewBox="0 0 92 86" version="1.1" xmlns="http://www.w3.org/2000/svg" xmlns:xlink="http://www.w3.org/1999/xlink">
    <!-- Generator: Sketch 3.6.1 (26313) - http://www.bohemiancoding.com/sketch -->
    <title>noun_68926_cc</title>
    <desc>Created with Sketch.</desc>
    <defs></defs>
    <g id="Page-1" stroke="none" stroke-width="1" fill="none" fill-rule="evenodd">
        <g id="noun_68926_cc" fill="#000000">
            <path d="M44,84 C42.896,84 42,83.1 42,82 L42,42 C42,40.9 42.896,40 44,40 C45.104,40 46,40.9 46,42 L46,82 C46,83.1 45.104,84 44,84 L44,84 Z" id="Shape"></path>
            <path d="M44,44 C40.692,44 38,41.308 38,38 C38,34.692 40.692,32 44,32 C47.308,32 50,34.692 50,38 C50,41.308 47.308,44 44,44 L44,44 Z M44,36 C42.896,36 42,36.9 42,38 C42,39.1 42.896,40 44,40 C45.104,40 46,39.1 46,38 C46,36.9 45.104,36 44,36 L44,36 Z" id="Shape"></path>
            <path d="M44,28 C38.828,28 38,6.22 38,6 C38,2.692 40.692,0 44,0 C47.308,0 50,2.692 50,6 C50,6.22 49.172,28 44,28 L44,28 Z M44,4 C42.896,4 42,4.9 42,6 C42,8.116 42.944,16.488 44,21.252 C45.056,16.496 46,8.116 46,6 C46,4.9 45.104,4 44,4 L44,4 Z" id="Shape"></path>
            <path d="M16.052,59.58 C13.876,59.58 11.864,58.4 10.804,56.5 C9.196,53.608 10.232,49.944 13.124,48.336 C14.78,47.416 28.124,41.508 32.536,41.508 C34.164,41.508 34.92,42.244 35.264,42.864 C37.772,47.368 19.164,58.712 18.968,58.812 C18.072,59.312 17.068,59.58 16.052,59.58 L16.052,59.58 Z M29.328,46.184 C24.42,47.624 16.652,50.944 15.072,51.828 C14.112,52.364 13.764,53.584 14.3,54.556 C14.82,55.484 16.076,55.86 17.024,55.32 C18.864,54.292 25.668,49.42 29.328,46.184 L29.328,46.184 Z" id="Shape"></path>
            <path d="M73.572,59.58 L73.572,59.58 C72.556,59.58 71.548,59.328 70.656,58.828 C70.46,58.728 51.848,47.384 54.356,42.876 C54.7,42.264 55.456,41.524 57.084,41.524 C61.5,41.524 74.84,47.436 76.496,48.344 C79.392,49.952 80.428,53.616 78.82,56.516 C77.756,58.4 75.744,59.58 73.572,59.58 L73.572,59.58 Z M60.264,46.16 C63.912,49.408 70.748,54.288 72.592,55.324 C73.532,55.844 74.8,55.484 75.316,54.556 C75.856,53.588 75.508,52.368 74.544,51.824 C72.956,50.944 65.116,47.592 60.264,46.16 L60.264,46.16 Z" id="Shape"></path>
            <path d="M90,86 L2,86 C0.896,86 0,85.1 0,84 C0,82.9 0.896,82 2,82 L90,82 C91.1,82 92,82.9 92,84 C92,85.1 91.1,86 90,86 L90,86 Z" id="Shape"></path>
        </g>
    </g>
</svg>