<?xml version="1.0" encoding="UTF-8" standalone="no"?>
<svg width="92px" height="86px" viewBox="0 0 92 86" version="1.1" xmlns="http://www.w3.org/2000/svg" xmlns:xlink="http://www.w3.org/1999/xlink">
    <!-- Generator: Sketch 3.6.1 (26313) - http://www.bohemiancoding.com/sketch -->
    <title>noun_68914_cc</title>
    <desc>Created with Sketch.</desc>
    <defs></defs>
    <g id="Page-1" stroke="none" stroke-width="1" fill="none" fill-rule="evenodd">
        <g id="noun_68914_cc" transform="translate(-1.000000, 0.000000)" fill="#000000">
            <path d="M28.436,59.792 C27.948,59.792 27.46,59.768 26.972,59.708 C16.056,58.552 7.448,44.844 4.256,39.004 C3.812,38.188 3.984,37.176 4.672,36.56 C5.36,35.948 6.388,35.88 7.148,36.404 C11.292,39.296 16.784,39.084 27.74,38.668 C33.288,38.432 38.648,40.804 42.72,45.26 C45.956,48.812 48.132,53.448 48.264,57.08 C48.304,58.176 47.444,59.112 46.34,59.16 C45.332,59.16 44.312,58.336 44.268,57.24 C44.188,55.068 42.744,51.24 39.764,47.98 C37.452,45.452 33.572,42.48 27.884,42.684 C20.224,42.952 15.032,43.156 10.908,42.268 C15.464,49.02 21.496,55.12 27.388,55.744 C31.152,56.144 34.672,54.384 38.132,50.376 C38.852,49.532 40.112,49.448 40.952,50.156 C41.788,50.884 41.88,52.14 41.16,52.976 C37.256,57.512 32.984,59.792 28.436,59.792 L28.436,59.792 Z" id="Shape"></path>
            <path d="M54.984,67.168 C54.68,67.168 54.38,67.096 54.088,66.956 C53.1,66.456 52.7,65.26 53.192,64.268 C57.488,55.676 65.928,51.456 74.088,47.364 C75.076,46.872 76.28,47.28 76.772,48.268 C77.272,49.26 76.864,50.456 75.876,50.956 C67.96,54.916 60.472,58.66 56.772,66.048 C56.416,66.76 55.716,67.168 54.984,67.168 L54.984,67.168 Z" id="Shape"></path>
            <path d="M44.984,83.168 C43.88,83.168 42.984,82.268 42.984,81.168 L42.96,78.084 C42.828,66.008 42.66,51 59.688,45.504 C76.272,40.168 84.6,37.488 89.384,30.732 C89.924,29.98 90.908,29.688 91.768,30.036 C92.628,30.38 93.136,31.288 92.996,32.192 C92.456,35.708 87.276,66.732 71.472,74.944 C66.096,77.72 60.2,77.556 53.94,74.464 C52.948,73.972 52.544,72.768 53.036,71.78 C53.524,70.788 54.72,70.384 55.716,70.868 C60.836,73.432 65.384,73.588 69.628,71.384 C79.192,66.424 85.06,50.284 87.8,38.12 C82.184,42.48 73.996,45.116 60.924,49.316 C46.696,53.9 46.836,66.18 46.964,78.052 L46.984,81.168 C46.984,82.268 46.084,83.168 44.984,83.168 L44.984,83.168 Z" id="Shape"></path>
            <path d="M44.984,83.168 C43.88,83.168 42.984,82.268 42.984,81.168 L42.984,37.168 C42.984,36.068 43.88,35.168 44.984,35.168 C46.088,35.168 46.984,36.068 46.984,37.168 L46.984,81.168 C46.984,82.268 46.084,83.168 44.984,83.168 L44.984,83.168 Z" id="Shape"></path>
            <path d="M44.936,32.332 C39.684,32.332 35.436,28.076 35.436,22.832 C35.436,17.588 39.688,13.332 44.936,13.332 C50.172,13.332 54.436,17.588 54.436,22.832 C54.436,28.076 50.172,32.332 44.936,32.332 L44.936,32.332 Z M44.936,17.332 C41.904,17.332 39.436,19.8 39.436,22.832 C39.436,25.864 41.904,28.332 44.936,28.332 C47.968,28.332 50.436,25.864 50.436,22.832 C50.436,19.8 47.972,17.332 44.936,17.332 L44.936,17.332 Z" id="Shape"></path>
            <path d="M48.936,8.832 C47.832,8.832 46.936,7.932 46.936,6.832 C46.936,5.732 46.04,4.832 44.936,4.832 C43.832,4.832 42.936,5.732 42.936,6.832 C42.936,7.932 42.04,8.832 40.936,8.832 C39.832,8.832 38.936,7.932 38.936,6.832 C38.936,3.524 41.628,0.832 44.936,0.832 C48.244,0.832 50.936,3.524 50.936,6.832 C50.936,7.932 50.044,8.832 48.936,8.832 L48.936,8.832 Z" id="Shape"></path>
            <path d="M60.272,18.768 C59.648,18.768 59.032,18.484 58.648,17.932 C58,17.024 58.212,15.784 59.108,15.148 C60.008,14.504 60.212,13.252 59.572,12.356 C59.26,11.928 58.804,11.628 58.272,11.548 C57.752,11.464 57.216,11.588 56.78,11.896 C55.88,12.54 54.632,12.34 53.992,11.436 C53.344,10.536 53.556,9.292 54.452,8.648 C55.752,7.728 57.344,7.368 58.924,7.604 C60.508,7.864 61.888,8.724 62.828,10.028 C64.752,12.716 64.132,16.464 61.436,18.396 C61.084,18.652 60.68,18.768 60.272,18.768 L60.272,18.768 Z" id="Shape"></path>
            <path d="M59.648,35.128 C58.844,35.128 58.044,34.964 57.28,34.636 C56.264,34.2 55.796,33.028 56.24,32.008 C56.672,30.996 57.844,30.52 58.868,30.964 C59.352,31.18 59.896,31.184 60.392,30.98 C60.888,30.784 61.284,30.396 61.484,29.9 C61.696,29.408 61.704,28.864 61.5,28.368 C61.304,27.872 60.92,27.468 60.436,27.284 C59.416,26.856 58.944,25.68 59.376,24.668 C59.808,23.644 60.988,23.176 61.996,23.604 C65.04,24.908 66.456,28.44 65.16,31.484 C64.528,32.96 63.356,34.104 61.868,34.7 C61.148,34.984 60.4,35.128 59.648,35.128 L59.648,35.128 Z" id="Shape"></path>
            <path d="M30.984,36.64 C28.88,36.64 26.832,35.536 25.732,33.564 C24.952,32.164 24.756,30.552 25.192,29 C25.628,27.448 26.64,26.176 28.04,25.404 C29.004,24.864 30.22,25.208 30.76,26.164 C31.3,27.128 30.952,28.348 29.988,28.896 C29.52,29.148 29.184,29.584 29.044,30.096 C28.9,30.612 28.96,31.152 29.22,31.612 C29.756,32.572 30.976,32.932 31.948,32.376 C32.904,31.844 34.128,32.184 34.668,33.14 C35.204,34.1 34.856,35.32 33.892,35.868 C32.976,36.404 31.976,36.64 30.984,36.64 L30.984,36.64 Z" id="Shape"></path>
            <path d="M29.044,20.424 C28.712,20.424 28.372,20.34 28.06,20.168 C26.664,19.38 25.66,18.088 25.232,16.552 C24.808,15.004 25,13.388 25.796,11.988 C27.428,9.116 31.096,8.104 33.972,9.724 C34.932,10.28 35.272,11.488 34.728,12.464 C34.18,13.42 32.956,13.756 32,13.216 C31.04,12.664 29.816,13.012 29.272,13.964 C29.008,14.424 28.94,14.968 29.084,15.484 C29.228,16 29.56,16.416 30.02,16.688 C30.98,17.24 31.32,18.448 30.776,19.42 C30.416,20.06 29.74,20.424 29.044,20.424 L29.044,20.424 Z" id="Shape"></path>
            <path d="M90.984,85.168 L2.984,85.168 C1.88,85.168 0.984,84.268 0.984,83.168 C0.984,82.068 1.88,81.168 2.984,81.168 L90.984,81.168 C92.084,81.168 92.984,82.068 92.984,83.168 C92.984,84.268 92.084,85.168 90.984,85.168 L90.984,85.168 Z" id="Shape"></path>
        </g>
    </g>
</svg>