<?xml version="1.0" encoding="UTF-8" standalone="no"?>
<svg width="122px" height="111px" viewBox="0 0 122 111" version="1.1" xmlns="http://www.w3.org/2000/svg" xmlns:xlink="http://www.w3.org/1999/xlink">
    <!-- Generator: Sketch 3.6.1 (26313) - http://www.bohemiancoding.com/sketch -->
    <title>Group 2</title>
    <desc>Created with Sketch.</desc>
    <defs></defs>
    <g id="Page-1" stroke="none" stroke-width="1" fill="none" fill-rule="evenodd">
        <g id="Group-2" transform="translate(-49.000000, -54.000000)">
            <g id="Group" transform="translate(49.000000, 114.000000)" fill="#2A384B">
                <path d="M44.4125,19.6465909 C44.6636364,19.6465909 44.9147727,19.6079545 45.1465909,19.4920455 L49.725,17.5988636 C50.7295455,17.1738636 51.2125,16.0147727 50.8068182,15.0102273 C50.4011364,13.9863636 49.2420455,13.5034091 48.2375,13.9284091 L43.6590909,15.8215909 C42.6545455,16.2465909 42.1715909,17.4056818 42.5772727,18.4102273 C42.9056818,19.1829545 43.6397727,19.6465909 44.4125,19.6465909 L44.4125,19.6465909 Z" id="Shape"></path>
                <path d="M35.1397727,43.6590909 C34.7147727,42.6545455 33.575,42.1715909 32.5704545,42.5965909 C31.5659091,43.0215909 31.1022727,44.1806818 31.5272727,45.2045455 L33.4204545,49.7829545 C33.7295455,50.5363636 34.4636364,51 35.2363636,51 C35.4875,51 35.7386364,50.9420455 35.9897727,50.8454545 C36.9943182,50.4204545 37.4579545,49.2613636 37.0329545,48.2375 L35.1397727,43.6590909 L35.1397727,43.6590909 Z" id="Shape"></path>
                <path d="M25.5193182,10.6443182 C17.3090909,10.6443182 10.6443182,17.3090909 10.6443182,25.5 C10.6443182,33.6909091 17.3284091,40.3556818 25.5193182,40.3556818 C33.7295455,40.3556818 40.3943182,33.6909091 40.3943182,25.5 C40.4136364,17.3090909 33.7295455,10.6443182 25.5193182,10.6443182 L25.5193182,10.6443182 Z" id="Shape"></path>
                <path d="M18.4295455,42.5965909 C17.425,42.1715909 16.2852273,42.6545455 15.8602273,43.6590909 L13.9670455,48.2375 C13.5420455,49.2420455 14.025,50.4204545 15.0102273,50.8454545 C15.2613636,50.9420455 15.5125,51 15.7636364,51 C16.5363636,51 17.2511364,50.5363636 17.5795455,49.7829545 L19.4727273,45.2045455 C19.8977273,44.1806818 19.4340909,43.0215909 18.4295455,42.5965909 L18.4295455,42.5965909 Z" id="Shape"></path>
                <path d="M49.7443182,33.4011364 L45.1659091,31.5079545 C44.1613636,31.0829545 43.0215909,31.5852273 42.5965909,32.5897727 C42.1909091,33.6136364 42.6738636,34.7727273 43.6784091,35.1784091 L48.2568182,37.0715909 C48.5079545,37.1681818 48.7590909,37.2261364 48.9909091,37.2261364 C49.7636364,37.2261364 50.4977273,36.7625 50.8068182,35.9897727 C51.2318182,34.9659091 50.7488636,33.8068182 49.7443182,33.4011364 L49.7443182,33.4011364 Z" id="Shape"></path>
                <path d="M32.5704545,8.40340909 C32.8215909,8.5 33.0727273,8.55795455 33.3238636,8.55795455 C34.0965909,8.55795455 34.8113636,8.09431818 35.1397727,7.34090909 L37.0329545,2.7625 C37.4579545,1.75795455 36.975,0.579545455 35.9897727,0.154545455 C34.9852273,-0.270454545 33.8454545,0.2125 33.4204545,1.21704545 L31.5272727,5.79545455 C31.1022727,6.81931818 31.5659091,7.97840909 32.5704545,8.40340909 L32.5704545,8.40340909 Z" id="Shape"></path>
                <path d="M7.32159091,15.8215909 L2.74318182,13.9284091 C1.73863636,13.5034091 0.598863636,14.0056818 0.173863636,15.0102273 C-0.251136364,16.0147727 0.251136364,17.1931818 1.25568182,17.5988636 L5.83409091,19.4920455 C6.08522727,19.5886364 6.33636364,19.6465909 6.56818182,19.6465909 C7.34090909,19.6465909 8.075,19.1829545 8.38409091,18.4102273 C8.80909091,17.4056818 8.32613636,16.2465909 7.32159091,15.8215909 L7.32159091,15.8215909 Z" id="Shape"></path>
                <path d="M15.8602273,7.34090909 C16.1693182,8.09431818 16.9034091,8.55795455 17.6761364,8.55795455 C17.9272727,8.55795455 18.1784091,8.5 18.4295455,8.40340909 C19.4340909,7.97840909 19.8977273,6.81931818 19.4727273,5.79545455 L17.5795455,1.21704545 C17.1545455,0.2125 16.0147727,-0.270454545 15.0102273,0.154545455 C14.0056818,0.579545455 13.5420455,1.73863636 13.9670455,2.7625 L15.8602273,7.34090909 L15.8602273,7.34090909 Z" id="Shape"></path>
                <path d="M5.83409091,31.4886364 L1.25568182,33.3818182 C0.251136364,33.8068182 -0.231818182,34.9659091 0.173863636,35.9704545 C0.482954545,36.7431818 1.21704545,37.2068182 1.98977273,37.2068182 C2.24090909,37.2068182 2.49204545,37.1681818 2.72386364,37.0522727 L7.30227273,35.1590909 C8.30681818,34.7340909 8.78977273,33.575 8.38409091,32.5704545 C7.99772727,31.5659091 6.83863636,31.0829545 5.83409091,31.4886364 L5.83409091,31.4886364 Z" id="Shape"></path>
            </g>
            <g id="noun_390710_cc" transform="translate(130.000000, 54.000000)" fill="#2A384B">
                <g id="Group">
                    <path d="M16.5074516,0.236370347 C16.5074516,0.236370347 0.3465,12.3058883 0.3465,21.5490205 C0.3465,29.2084256 7.57722581,35.4253772 16.5074516,35.4253772 C25.4270323,35.4253772 32.6545645,29.2084256 32.6545645,21.5490205 C32.6545645,12.601237 16.5074516,0.236370347 16.5074516,0.236370347 L16.5074516,0.236370347 Z M16.5005323,31.625621 C10.0309355,31.625621 4.76743548,27.1039522 4.76743548,21.5471917 C4.76743548,20.915804 5.36303226,20.4042016 6.09808065,20.4042016 C6.83312903,20.4042016 7.42872581,20.915804 7.42872581,21.5471917 C7.42872581,25.84392 11.498371,29.3396408 16.5005323,29.3396408 C17.2355806,29.3396408 17.8311774,29.8512432 17.8311774,30.4826309 C17.8311774,31.1140186 17.2355806,31.625621 16.5005323,31.625621 L16.5005323,31.625621 Z" id="Shape"></path>
                </g>
            </g>
            <g id="noun_809627_cc" transform="translate(123.000000, 115.000000)" fill="#2A384B">
                <g id="17---Wind-Toy-(Solid)">
                    <g id="Group">
                        <g id="Shape">
                            <path d="M26.9473684,44.046 L21.6842105,44.046 L21.6842105,30.618 C21.8947368,30.522 22.1078947,30.424 22.3236842,30.322 L26.9473684,28.166 L26.9473684,44.046 L26.9473684,44.046 Z M24.1,16.012 C24.2710526,15.984 24.4421053,15.982 24.6105263,15.988 C24.8763158,16.002 25.1368421,16.046 25.3763158,16.138 C25.4157895,16.152 25.45,16.17 25.4894737,16.186 C25.75,16.306 25.9868421,16.46 26.1578947,16.67 C26.2105263,16.736 26.2184211,16.808 26.2578947,16.876 C26.3394737,17.026 26.3973684,17.18 26.4157895,17.334 C26.4184211,17.364 26.4105263,17.394 26.4105263,17.424 C26.4131579,17.568 26.4,17.712 26.35,17.85 C26.3236842,17.916 26.2736842,17.976 26.2368421,18.038 C26.1815789,18.136 26.1342105,18.236 26.05,18.322 C25.9078947,18.468 25.7315789,18.6 25.5157895,18.7 C25.3105263,18.796 25.0894737,18.848 24.8657895,18.88 C24.8026316,18.89 24.7368421,18.892 24.6710526,18.898 C24.5368421,18.906 24.4026316,18.896 24.2710526,18.884 C24.0605263,18.864 23.8657895,18.816 23.6815789,18.75 C23.6052632,18.724 23.5263158,18.708 23.4552632,18.672 C23.2157895,18.556 23,18.406 22.8447368,18.214 C22.7947368,18.152 22.7842105,18.078 22.7473684,18.012 C22.6631579,17.862 22.6052632,17.71 22.5868421,17.554 C22.5842105,17.52 22.5947368,17.486 22.5921053,17.45 C22.5894737,17.31 22.6026316,17.168 22.65,17.034 C22.6763158,16.966 22.7263158,16.908 22.7657895,16.844 C22.8210526,16.746 22.8710526,16.644 22.9552632,16.556 C23.1,16.412 23.2736842,16.284 23.4842105,16.186 C23.6394737,16.114 23.8342105,16.06 24.0815789,16.016 C24.0868421,16.016 24.0894737,16.012 24.0947368,16.012 L24.1,16.012 L24.1,16.012 L24.1,16.012 Z M47.2868421,7.134 C40.7,-0.092 34.8736842,0.738 25.7684211,4.986 L21.0368421,7.194 L16.0342105,1 C15.6526316,0.532 15.0394737,0.202 14.3315789,0.088 C13.6210526,-0.026 12.8868421,0.088 12.2921053,0.402 C2.81578947,5.39 3.91842105,9.814 9.50789474,16.734 L12.3868421,20.296 L1.63947368,25.312 C1.02105263,25.6 0.589473684,26.068 0.442105263,26.606 C0.292105263,27.142 0.442105263,27.704 0.852631579,28.156 C4.34210526,31.984 7.61052632,33.552 11.2657895,33.552 C12.8894737,33.552 14.5921053,33.242 16.4210526,32.682 L16.4210526,46.046 C16.4210526,47.15 17.5973684,48.046 19.0526316,48.046 L29.5789474,48.046 C31.0342105,48.046 32.2105263,47.15 32.2105263,46.046 L32.2105263,34.434 C32.5947368,34.826 33.1263158,35.12 33.7605263,35.22 C33.9394737,35.25 34.1236842,35.264 34.3026316,35.264 C34.8342105,35.264 35.3552632,35.142 35.8,34.908 C45.5842105,29.758 44.4421053,24.97 39.1684211,18.436 L36.2105263,14.778 L46.5,9.976 C47.1157895,9.69 47.5473684,9.222 47.6973684,8.684 C47.8447368,8.146 47.6973684,7.586 47.2868421,7.134 L47.2868421,7.134 L47.2868421,7.134 Z"></path>
                        </g>
                    </g>
                </g>
            </g>
            <g id="noun_836600_cc" transform="translate(49.000000, 54.000000)" fill="#2A384B">
                <g id="Group">
                    <path d="M45.7518,12.7176 C50.6136,14.049 54,18.4956 54,23.5434 C54,29.6796 49.0098,34.713 42.8808,34.7556 L11.2194,34.7556 C11.2122,34.7556 11.205,34.7628 11.1978,34.7628 C5.019,34.7484 0,29.7222 0,23.5434 C0,17.3574 5.0262,12.324 11.2194,12.324 C12.7086,12.324 14.1552,12.6102 15.5154,13.176 C16.0596,13.4052 16.6896,13.14 16.9188,12.5958 C17.148,12.0444 16.89,11.4216 16.3386,11.1924 C15.057,10.6626 13.7178,10.3404 12.3432,10.2258 C12.8586,4.5192 17.67,0.0372 23.5056,0.0372 C27.5796,0.0372 31.3386,2.2638 33.3006,5.7792 C32.3982,6.5598 31.668,7.5192 31.167,8.6076 C30.9234,9.1446 31.1598,9.7818 31.6968,10.0326 C32.2338,10.2762 32.871,10.0398 33.1218,9.5028 C33.5946,8.4792 34.332,7.5984 35.2626,6.9684 C36.3078,6.2526 37.518,5.88 38.7708,5.88 C42.057,5.88 44.778,8.4576 44.964,11.7438 C44.9856,12.2022 45.3078,12.5958 45.7518,12.7176 L45.7518,12.7176 Z" id="Shape"></path>
                </g>
            </g>
            <rect id="Rectangle-2" x="0" y="0" width="220" height="220"></rect>
        </g>
    </g>
</svg>