<?xml version="1.0" encoding="UTF-8" standalone="no"?>
<svg width="144px" height="122px" viewBox="0 0 144 122" version="1.1" xmlns="http://www.w3.org/2000/svg" xmlns:xlink="http://www.w3.org/1999/xlink">
    <!-- Generator: Sketch 3.6.1 (26313) - http://www.bohemiancoding.com/sketch -->
    <title>Group 4</title>
    <desc>Created with Sketch.</desc>
    <defs></defs>
    <g id="Page-1" stroke="none" stroke-width="1" fill="none" fill-rule="evenodd">
        <g id="Group-4" transform="translate(-38.000000, -54.000000)">
            <g id="noun_791272_cc" transform="translate(38.000000, 54.000000)" fill="#2A384B">
                <g id="p6">
                    <path d="M132.890625,10.828125 L11.109375,10.828125 C4.97383661,10.828125 7.51386745e-16,16.1473669 0,22.7089844 L0,99.4082031 C7.51386745e-16,105.969821 4.97383661,111.289063 11.109375,111.289063 L42.5503125,111.289063 C36.2610268,103.656171 32.7945429,93.8298134 32.8021875,83.6562891 C32.8021875,60.54125 50.3859375,41.7364063 72.0028125,41.7364063 C93.6196875,41.7364063 111.203437,60.54125 111.203437,83.6592969 C111.208843,93.8325688 107.74037,103.657826 101.449687,111.289063 L132.890625,111.289063 C139.026163,111.289063 144,105.969821 144,99.4082031 L144,22.7089844 C144,16.1473669 139.026163,10.828125 132.890625,10.828125 L132.890625,10.828125 Z" id="Shape"></path>
                    <rect id="Rectangle-path" x="18.28125" y="0" width="29.8125" height="7.8203125" rx="9"></rect>
                    <path d="M72,46.2451172 C52.6800439,46.2451172 37.018125,62.9946694 37.018125,83.6562891 C37.018125,104.317909 52.6800439,121.067461 72,121.067461 C91.3199561,121.067461 106.981875,104.317909 106.981875,83.6562891 C106.960176,63.0042894 91.3109607,46.2683236 72,46.2451172 L72,46.2451172 Z M71.4375,90.6855469 C67.7334375,90.6855469 64.9884375,87.4461328 64.828125,83.6171875 C64.6678125,79.7882422 67.9809375,76.5488281 71.4375,76.5488281 C75.1415625,76.5488281 77.8865625,79.7882422 78.046875,83.6171875 C78.2071875,87.4461328 74.8940625,90.6855469 71.4375,90.6855469 L71.4375,90.6855469 Z" id="Shape"></path>
                </g>
            </g>
            <rect id="Rectangle-2" x="0" y="0" width="220" height="220"></rect>
        </g>
    </g>
</svg>