<?xml version="1.0" encoding="UTF-8"?>
<svg width="342px" height="342px" viewBox="0 0 342 342" version="1.1" xmlns="http://www.w3.org/2000/svg" xmlns:xlink="http://www.w3.org/1999/xlink">
    <!-- Generator: Sketch 3.6.1 (26313) - http://www.bohemiancoding.com/sketch -->
    <title>Group 2</title>
    <desc>Created with Sketch.</desc>
    <defs></defs>
    <g id="Page-1" stroke="none" stroke-width="1" fill="none" fill-rule="evenodd">
        <g id="Group-2" transform="translate(8.000000, 8.000000)" stroke="#4EC1D6">
            <circle id="Oval-1" stroke-width="15" cx="163" cy="163" r="163"></circle>
            <g id="noun_651039_cc" transform="translate(94.000000, 96.000000)" stroke-width="7" fill="#4EC1D6">
                <path d="M125.32265,0.431 L13.6773504,0.431 C6.30641026,0.431 0.75,10.3709573 0.75,23.5545043 C0.75,36.7380513 6.30641026,46.680359 13.6773504,46.680359 C15.8232906,46.680359 17.8070513,45.8154017 19.5534188,44.2946752 L19.5534188,131.206427 C19.5534188,133.152581 21.132906,134.732068 23.0790598,134.732068 L134.724359,134.732068 C136.670513,134.732068 138.25,133.152581 138.25,131.206427 L138.25,23.5545043 C138.25,10.3709573 132.69359,0.431 125.32265,0.431 L125.32265,0.431 Z M13.6773504,39.6267265 C11.6042735,39.6267265 7.80128205,33.5226667 7.80128205,23.5521538 C7.80128205,13.581641 11.6042735,7.47993162 13.6773504,7.47993162 C15.7504274,7.47993162 19.5534188,13.581641 19.5534188,23.5521538 C19.5534188,33.5226667 15.7504274,39.6267265 13.6773504,39.6267265 L13.6773504,39.6267265 Z M131.198718,127.678436 L26.6047009,127.678436 L26.6047009,23.5545043 C26.6047009,17.1824957 25.2978632,11.5814274 23.1260684,7.48228205 L125.32265,7.48228205 C127.395726,7.48228205 131.198718,13.5839915 131.198718,23.5545043 L131.198718,127.678436 L131.198718,127.678436 Z" id="Shape"></path>
            </g>
        </g>
    </g>
</svg>