<?xml version="1.0" encoding="UTF-8"?>
<svg width="342px" height="342px" viewBox="0 0 342 342" version="1.1" xmlns="http://www.w3.org/2000/svg" xmlns:xlink="http://www.w3.org/1999/xlink">
    <!-- Generator: Sketch 3.6.1 (26313) - http://www.bohemiancoding.com/sketch -->
    <title>Group 3</title>
    <desc>Created with Sketch.</desc>
    <defs></defs>
    <g id="Page-1" stroke="none" stroke-width="1" fill="none" fill-rule="evenodd">
        <g id="Group-3" transform="translate(8.000000, 8.000000)">
            <circle id="Oval-1" stroke="#4B8D99" stroke-width="15" fill="#4B8D99" cx="163" cy="163" r="163"></circle>
            <g id="noun_862297_cc" transform="translate(85.000000, 97.000000)" stroke="#FFFFFF" stroke-width="10" fill="#FFFFFF">
                <g id="Group" transform="translate(0.000000, 0.637820)">
                    <path d="M54.95,0.362702416 C53.735605,0.367935749 52.9181583,1.18302742 52.5787767,1.75280658 L42.8479167,21.2960357 L15.1274733,21.2960357 C6.78972667,21.2960357 0,28.1159064 0,36.5054107 L0,115.986608 C0,124.376165 6.78998833,131.195983 15.1274733,131.195983 L141.872527,131.195983 C150.210273,131.195983 157,124.376165 157,115.986608 L157,36.5054107 C157,28.1159064 150.210012,21.2960357 141.872527,21.2960357 L114.152083,21.2960357 L104.421223,1.75280658 C103.969325,0.900610582 103.014503,0.340827082 102.05,0.362702416 L54.95,0.362702416 Z M56.5854167,5.59603575 L100.414583,5.59603575 L110.145443,25.0574941 C110.574577,25.9398079 111.535417,26.5361462 112.516667,26.5293691 L141.872527,26.5293691 C147.39317,26.5293691 151.766667,30.8984174 151.766667,36.5054107 L151.766667,115.986608 C151.766667,121.593602 147.39317,125.96265 141.872527,125.96265 L15.1274733,125.96265 C9.60683,125.96265 5.23333333,121.593602 5.23333333,115.986608 L5.23333333,36.5054107 C5.23333333,30.8984174 9.60683,26.5293691 15.1274733,26.5293691 L44.4833333,26.5293691 C45.4645833,26.5372191 46.4254233,25.9398079 46.8545567,25.0574941 L56.5854167,5.59603575 Z M78.5,44.8460357 C61.1894417,44.8460357 47.1,58.9353204 47.1,76.2459834 C47.1,93.5568034 61.1894417,107.645983 78.5,107.645983 C95.81082,107.645983 109.9,93.5568034 109.9,76.2459834 C109.9,58.9353204 95.81082,44.8460357 78.5,44.8460357 L78.5,44.8460357 Z M78.5,50.0793691 C92.9827267,50.0793691 104.666667,61.7637801 104.666667,76.2459834 C104.666667,90.7284484 92.9827267,102.41265 78.5,102.41265 C64.0180583,102.41265 52.3333333,90.7284484 52.3333333,76.2459834 C52.3333333,61.7637801 64.0180583,50.0793691 78.5,50.0793691 L78.5,50.0793691 Z" id="Shape"></path>
                </g>
            </g>
        </g>
    </g>
</svg>