<?xml version="1.0" encoding="UTF-8"?>
<svg width="342px" height="342px" viewBox="0 0 342 342" version="1.1" xmlns="http://www.w3.org/2000/svg" xmlns:xlink="http://www.w3.org/1999/xlink">
    <!-- Generator: Sketch 3.6.1 (26313) - http://www.bohemiancoding.com/sketch -->
    <title>Group 4</title>
    <desc>Created with Sketch.</desc>
    <defs></defs>
    <g id="Page-1" stroke="none" stroke-width="1" fill="none" fill-rule="evenodd">
        <g id="Group-4" transform="translate(8.000000, 8.000000)">
            <circle id="Oval-1" stroke="#4B8D99" stroke-width="15" fill="#4B8D99" cx="163" cy="163" r="163"></circle>
            <path d="M211.2,207 C199.6,217.6 184,224 167.2,224 C140.8,224 118,208.4 108.2,186 L166,186 L166,179.4 L105.8,179.4 C104.2,173.8 103.2,168 103.2,161.8 C103.2,156.8 103.8,152 105,147.4 L166,147.4 L166,140.6 L107,140.6 C116,116.8 139.6,100 167.2,100 C184,100 199.6,106.4 211.2,117.2 L216.4,110.8 C203.4,99.2 186,92 167.2,92 C135,92 107.8,112.4 98.4,140.6 L75.8,140.6 L75.8,147.4 L96.6,147.4 C95.6,152.2 95,157 95,162 C95,168 95.8,173.8 97.2,179.4 L75.8,179.4 L75.8,186 L99.4,186 C109.4,213 135.8,232.2 167,232.2 C185.8,232.2 203.4,224.8 216.6,212.8 L211.2,207 Z" id="€" stroke="#FFFFFF" stroke-width="8" fill="#4ED69E"></path>
        </g>
    </g>
</svg>