<?xml version="1.0" encoding="UTF-8" standalone="no"?>
<svg width="40px" height="94px" viewBox="0 0 40 94" version="1.1" xmlns="http://www.w3.org/2000/svg" xmlns:xlink="http://www.w3.org/1999/xlink">
    <!-- Generator: Sketch 3.6.1 (26313) - http://www.bohemiancoding.com/sketch -->
    <title>noun_68913_cc</title>
    <desc>Created with Sketch.</desc>
    <defs></defs>
    <g id="Page-1" stroke="none" stroke-width="1" fill="none" fill-rule="evenodd">
        <g id="noun_68913_cc" fill="#000000">
            <path d="M20,85.68 C13.384,85.68 8,80.296 8,73.68 C8,67.064 13.384,61.68 20,61.68 C26.616,61.68 32,67.064 32,73.68 C32,80.296 26.616,85.68 20,85.68 L20,85.68 Z M20,65.68 C15.588,65.68 12,69.264 12,73.68 C12,78.096 15.588,81.68 20,81.68 C24.416,81.68 28,78.096 28,73.68 C28,69.264 24.416,65.68 20,65.68 L20,65.68 Z" id="Shape"></path>
            <path d="M20,63.516 C18.896,63.516 18,62.616 18,61.516 L18,13.516 C18,12.416 18.896,11.516 20,11.516 C21.104,11.516 22,12.416 22,13.516 L22,61.516 C22,62.616 21.104,63.516 20,63.516 L20,63.516 Z" id="Shape"></path>
            <path d="M20,93.68 C8.972,93.68 0,84.712 0,73.68 C0,66.524 3.8,60.024 10,56.436 L10,10.32 C10,4.804 14.488,0.32 20,0.32 C25.512,0.32 30,4.804 30,10.32 L30,56.44 C36.2,60.024 40,66.524 40,73.684 C40,84.712 31.028,93.68 20,93.68 L20,93.68 Z M20,4.32 C16.692,4.32 14,7.012 14,10.32 L14,57.64 C14,58.392 13.572,59.084 12.896,59.42 C7.408,62.172 4,67.624 4,73.672 C4,82.5 11.176,89.672 20,89.672 C28.824,89.672 36,82.5 36,73.672 C36,67.616 32.592,62.164 27.1,59.42 C26.428,59.084 26,58.388 26,57.64 L26,10.32 C26,7.008 23.308,4.32 20,4.32 L20,4.32 Z" id="Shape"></path>
            <path d="M34,21.516 L30,21.516 C28.9,21.516 28,20.616 28,19.516 C28,18.416 28.9,17.516 30,17.516 L34,17.516 C35.1,17.516 36,18.416 36,19.516 C36,20.616 35.1,21.516 34,21.516 L34,21.516 Z" id="Shape"></path>
            <path d="M34,29.516 L30,29.516 C28.9,29.516 28,28.616 28,27.516 C28,26.416 28.9,25.516 30,25.516 L34,25.516 C35.1,25.516 36,26.416 36,27.516 C36,28.616 35.1,29.516 34,29.516 L34,29.516 Z" id="Shape"></path>
            <path d="M34,37.516 L30,37.516 C28.9,37.516 28,36.616 28,35.516 C28,34.416 28.9,33.516 30,33.516 L34,33.516 C35.1,33.516 36,34.416 36,35.516 C36,36.616 35.1,37.516 34,37.516 L34,37.516 Z" id="Shape"></path>
        </g>
    </g>
</svg>