<?xml version="1.0" encoding="UTF-8" standalone="no"?>
<svg width="74px" height="94px" viewBox="0 0 74 94" version="1.1" xmlns="http://www.w3.org/2000/svg" xmlns:xlink="http://www.w3.org/1999/xlink">
    <!-- Generator: Sketch 3.6.1 (26313) - http://www.bohemiancoding.com/sketch -->
    <title>noun_68888_cc</title>
    <desc>Created with Sketch.</desc>
    <defs></defs>
    <g id="Page-1" stroke="none" stroke-width="1" fill="none" fill-rule="evenodd">
        <g id="noun_68888_cc" fill="#000000">
            <path d="M28.004,93.96 C18.952,93.96 11.62,90.836 6.804,84.928 C1.296,78.172 -0.448,68.172 1.9,56.784 C4.436,44.48 13.5,30.896 22.276,17.764 C23.652,15.7 25.016,13.664 26.332,11.664 C26.7,11.096 27.332,10.756 28.004,10.756 L28.004,10.756 C28.676,10.756 29.308,11.096 29.676,11.664 C30.996,13.672 32.36,15.728 33.744,17.784 C42.504,30.912 51.572,44.488 54.104,56.784 C56.452,68.18 54.708,78.172 49.196,84.928 C44.384,90.844 37.052,93.96 28.004,93.96 L28.004,93.96 Z M28.004,16.384 C27.212,17.58 26.416,18.78 25.604,19.976 C17.04,32.792 8.192,46.056 5.82,57.568 C3.72,67.756 5.172,76.568 9.904,82.38 C13.932,87.32 20.188,89.948 27.996,89.948 C35.804,89.948 42.06,87.344 46.092,82.38 C50.828,76.568 52.276,67.768 50.176,57.568 C47.8,46.036 38.956,32.804 30.412,19.984 C29.604,18.796 28.796,17.584 28.004,16.384 L28.004,16.384 Z" id="Shape"></path>
            <path d="M16.732,78.844 C16.148,78.844 15.572,78.592 15.176,78.104 C11.76,73.912 10.8,67.112 12.48,58.968 C12.704,57.884 13.744,57.148 14.844,57.404 C15.928,57.632 16.62,58.672 16.404,59.764 C14.972,66.704 15.64,72.336 18.284,75.576 C18.98,76.436 18.852,77.68 17.996,78.388 C17.62,78.696 17.172,78.844 16.732,78.844 L16.732,78.844 Z" id="Shape"></path>
            <path d="M49.432,82.992 C48.416,82.992 47.544,82.228 47.444,81.192 C47.336,80.096 48.136,79.108 49.236,79.004 C55.908,78.336 61.252,75.516 64.684,70.84 C68.94,65.056 70.184,56.512 68.184,46.796 C65.808,35.256 56.964,22.016 48.416,9.208 C47.604,7.992 46.8,6.792 46,5.596 C45.196,6.82 44.38,8.028 43.56,9.26 C40.748,13.484 37.872,17.784 35.196,22.088 C34.612,23.02 33.38,23.324 32.444,22.736 C31.504,22.152 31.212,20.916 31.8,19.984 C34.5,15.64 37.396,11.292 40.232,7.056 C41.624,4.972 42.996,2.908 44.324,0.876 C45.068,-0.24 46.928,-0.24 47.668,0.876 C48.988,2.892 50.352,4.94 51.736,6.992 C60.496,20.12 69.568,33.696 72.1,45.996 C74.336,56.836 72.844,66.504 67.908,73.228 C63.784,78.828 57.464,82.212 49.632,82.988 C49.568,82.988 49.496,82.992 49.432,82.992 L49.432,82.992 Z" id="Shape"></path>
        </g>
    </g>
</svg>