<?xml version="1.0" encoding="UTF-8" standalone="no"?>
<svg width="53px" height="58px" viewBox="0 0 53 58" version="1.1" xmlns="http://www.w3.org/2000/svg" xmlns:xlink="http://www.w3.org/1999/xlink">
    <!-- Generator: Sketch 3.6.1 (26313) - http://www.bohemiancoding.com/sketch -->
    <title>noun_621335_cc</title>
    <desc>Created with Sketch.</desc>
    <defs></defs>
    <g id="Page-1" stroke="none" stroke-width="1" fill="none" fill-rule="evenodd">
        <g id="noun_621335_cc" fill="#000000">
            <g id="Group">
                <path d="M10.189,38.334 C10.524,40.504 11.201,42.6 12.161,44.539 L8.682,45.42 L5.255,55.562 C4.954,56.452 5.432,57.416 6.321,57.717 C6.501,57.778 6.684,57.807 6.865,57.807 C7.574,57.807 8.236,57.36 8.475,56.651 L11.31,48.262 L13.986,47.585 C17.01,51.813 21.438,54.836 26.287,55.41 L26.486,55.433 L26.685,55.41 C31.488,54.842 35.874,51.869 38.897,47.707 L41.15,48.276 L44.53,56.736 C44.797,57.4 45.434,57.805 46.11,57.805 C46.319,57.804 46.533,57.765 46.74,57.683 C47.612,57.334 48.036,56.345 47.688,55.474 L43.664,45.405 L40.747,44.668 C41.742,42.691 42.443,40.553 42.785,38.334 L49.976,38.334 L52.194,35.037 C52.718,34.259 52.512,33.202 51.733,32.678 C50.954,32.153 49.897,32.36 49.374,33.139 L48.166,34.934 L43.026,34.934 C42.984,32.828 42.589,30.78 41.878,28.861 L43.662,28.41 L47.687,18.342 C48.036,17.47 47.612,16.481 46.74,16.132 C45.868,15.784 44.88,16.208 44.531,17.079 L41.148,25.538 L40.372,25.734 C39.025,23.503 37.2,21.553 34.98,20.03 C35.364,19.024 35.584,17.938 35.584,16.799 C35.584,13.735 34.057,11.025 31.729,9.375 L33.486,2.242 C33.711,1.33 33.154,0.409 32.242,0.184 C31.338,-0.038 30.409,0.517 30.185,1.428 L28.578,7.952 C27.905,7.793 27.208,7.7 26.487,7.7 C25.767,7.7 25.07,7.793 24.397,7.952 L22.79,1.428 C22.566,0.516 21.645,-0.042 20.732,0.184 C19.821,0.409 19.264,1.33 19.489,2.241 L21.247,9.373 C18.918,11.022 17.39,13.733 17.39,16.798 C17.39,17.937 17.61,19.023 17.994,20.028 C15.734,21.58 13.885,23.575 12.531,25.858 L11.313,25.549 L8.475,17.164 C8.174,16.274 7.209,15.8 6.32,16.099 C5.43,16.4 4.954,17.365 5.255,18.254 L8.687,28.391 L11.052,28.991 C10.371,30.872 9.992,32.874 9.951,34.932 L4.809,34.932 L3.6,33.137 C3.074,32.36 2.021,32.151 1.24,32.677 C0.462,33.201 0.256,34.258 0.78,35.037 L3.001,38.332 L10.189,38.332 L10.189,38.334 Z M23.9,11.728 C23.92,11.72 23.937,11.71 23.956,11.701 C24.72,11.321 25.577,11.101 26.486,11.101 C27.399,11.101 28.259,11.322 29.025,11.706 C29.04,11.713 29.053,11.72 29.068,11.726 C30.914,12.67 32.183,14.587 32.183,16.799 C32.183,19.94 29.627,22.496 26.486,22.496 C23.345,22.496 20.789,19.94 20.789,16.799 C20.789,14.589 22.057,12.673 23.9,11.728 L23.9,11.728 Z M19.781,22.926 C21.445,24.746 23.831,25.896 26.486,25.896 C29.141,25.896 31.526,24.746 33.191,22.926 C37.233,25.764 39.637,30.355 39.637,35.304 C39.637,43.3 33.515,51.046 26.486,52.007 C19.459,51.046 13.338,43.3 13.338,35.304 C13.338,30.354 15.741,25.764 19.781,22.926 L19.781,22.926 Z" id="Shape"></path>
                <path d="M32.744,43.022 C33.02,43.191 33.326,43.271 33.628,43.271 C34.201,43.271 34.761,42.982 35.081,42.457 C36.273,40.503 37.059,38.271 37.351,36.004 C37.472,35.073 36.814,34.221 35.883,34.101 C34.945,33.983 34.1,34.639 33.98,35.569 C33.748,37.368 33.125,39.136 32.179,40.686 C31.689,41.487 31.943,42.533 32.744,43.022 L32.744,43.022 Z" id="Shape"></path>
                <path d="M30.806,46.407 C31.256,46.407 31.697,46.226 32.006,45.917 C32.326,45.598 32.506,45.157 32.506,44.717 C32.506,44.268 32.326,43.827 32.006,43.508 C31.376,42.877 30.236,42.877 29.606,43.508 C29.287,43.827 29.106,44.268 29.106,44.717 C29.106,45.157 29.287,45.598 29.606,45.917 C29.916,46.227 30.355,46.407 30.806,46.407 L30.806,46.407 Z" id="Shape"></path>
            </g>
        </g>
    </g>
</svg>