<?xml version="1.0" encoding="UTF-8" standalone="no"?>
<svg width="56px" height="58px" viewBox="0 0 56 58" version="1.1" xmlns="http://www.w3.org/2000/svg" xmlns:xlink="http://www.w3.org/1999/xlink">
    <!-- Generator: Sketch 3.6.1 (26313) - http://www.bohemiancoding.com/sketch -->
    <title>noun_633587_cc</title>
    <desc>Created with Sketch.</desc>
    <defs></defs>
    <g id="Page-1" stroke="none" stroke-width="1" fill="none" fill-rule="evenodd">
        <g id="noun_633587_cc" fill="#000000">
            <g id="Group">
                <path d="M0.5,47.5 L0.5,10.5 C0.5,5 5,0.5 10.5,0.5 L47.6,0.5 L47.6,4.5 L10.5,4.5 C7.2,4.5 4.5,7.2 4.5,10.5 L4.5,47.6 C4.5,50.9 7.2,53.6 10.5,53.6 L47.6,53.6 L47.6,57.6 L10.5,57.6 C4.9,57.5 0.5,53.1 0.5,47.5 L0.5,47.5 Z" id="Shape"></path>
                <path d="M27.5,40.3 L16.2,29 L27.5,17.7 L30.4,20.5 L23.9,27 L55.5,27 L55.5,31 L23.9,31 L30.4,37.5 L27.5,40.3 Z" id="Shape"></path>
            </g>
        </g>
    </g>
</svg>