<?xml version="1.0" encoding="UTF-8" standalone="no"?>
<svg width="68px" height="80px" viewBox="0 0 68 80" version="1.1" xmlns="http://www.w3.org/2000/svg" xmlns:xlink="http://www.w3.org/1999/xlink">
    <!-- Generator: Sketch 3.6.1 (26313) - http://www.bohemiancoding.com/sketch -->
    <title>noun_532303_cc</title>
    <desc>Created with Sketch.</desc>
    <defs></defs>
    <g id="Page-1" stroke="none" stroke-width="1" fill="none" fill-rule="evenodd">
        <g id="noun_532303_cc" transform="translate(-1.000000, 0.000000)" fill="#616161">
            <path d="M54.781,13.804 C53.699,11.247 52.152,8.951 50.18,6.981 C48.209,5.009 45.913,3.461 43.356,2.38 C40.709,1.26 37.897,0.692 35.001,0.692 C32.102,0.692 29.29,1.26 26.643,2.38 C24.087,3.462 21.79,5.009 19.82,6.981 C17.847,8.951 16.3,11.248 15.218,13.804 C14.097,16.452 13.53,19.264 13.53,22.161 C13.53,27.027 16.973,34.87 23.763,45.47 C28.742,53.243 33.791,59.747 33.841,59.812 L35,61.3 L36.156,59.812 C36.207,59.748 41.257,53.244 46.235,45.47 C53.025,34.87 56.468,27.027 56.468,22.161 C56.47,19.264 55.902,16.453 54.781,13.804 L54.781,13.804 Z M35,29.524 C30.405,29.524 26.679,25.798 26.679,21.202 C26.679,16.606 30.406,12.88 35,12.88 C39.597,12.88 43.321,16.606 43.321,21.202 C43.321,25.798 39.597,29.524 35,29.524 L35,29.524 Z" id="Shape"></path>
            <path d="M53.177,44.691 C52.176,46.439 51.131,48.183 50.073,49.894 C58.144,52.363 63.096,56.626 63.096,60.593 C63.096,66.646 51.557,73.392 35,73.392 C18.443,73.392 6.904,66.646 6.904,60.593 C6.904,56.626 11.857,52.363 19.928,49.894 C18.868,48.183 17.824,46.439 16.823,44.691 C7.243,47.966 0.989,53.804 0.989,60.593 C0.989,71.085 15.928,79.306 35,79.306 C54.073,79.306 69.012,71.085 69.012,60.593 C69.012,53.805 62.758,47.967 53.177,44.691 L53.177,44.691 Z" id="Shape"></path>
        </g>
    </g>
</svg>