<?xml version="1.0" encoding="UTF-8" standalone="no"?>
<svg width="38px" height="48px" viewBox="0 0 38 48" version="1.1" xmlns="http://www.w3.org/2000/svg" xmlns:xlink="http://www.w3.org/1999/xlink">
    <!-- Generator: Sketch 3.6.1 (26313) - http://www.bohemiancoding.com/sketch -->
    <title>noun_123099_cc</title>
    <desc>Created with Sketch.</desc>
    <defs></defs>
    <g id="Page-1" stroke="none" stroke-width="1" fill="none" fill-rule="evenodd">
        <g id="noun_123099_cc" fill="#000000">
            <g id="Group">
                <path d="M31.85,48 L6.151,48 C2.822,48 0.114,45.292 0.114,41.963 L0.114,24.879 C0.114,21.55 2.822,18.842 6.151,18.842 L31.848,18.842 C35.177,18.842 37.885,21.55 37.885,24.879 L37.885,41.963 C37.886,43.569 37.257,45.085 36.114,46.228 C34.971,47.371 33.456,48 31.85,48 L31.85,48 Z M6.151,20.842 C3.925,20.842 2.114,22.653 2.114,24.879 L2.114,41.963 C2.114,44.189 3.925,46 6.151,46 L31.85,46 C34.076,46 35.887,44.188 35.887,41.963 L35.885,24.879 C35.885,22.653 34.073,20.842 31.848,20.842 L6.151,20.842 L6.151,20.842 Z" id="Shape" opacity="0.75443097"></path>
                <path d="M30.668,20.842 C30.115,20.842 29.668,20.394 29.668,19.842 L29.668,12.668 C29.668,6.786 24.883,2 19,2 C13.118,2 8.332,6.786 8.332,12.668 L8.332,19.842 C8.332,20.394 7.884,20.842 7.332,20.842 C6.78,20.842 6.332,20.394 6.332,19.842 L6.332,12.668 C6.332,5.683 12.015,0 19,0 C25.985,0 31.668,5.683 31.668,12.668 L31.668,19.842 C31.668,20.394 31.221,20.842 30.668,20.842 L30.668,20.842 Z" id="Shape" opacity="0.748017724"></path>
                <path d="M22.943,31.645 C22.943,29.466 21.176,27.702 18.999,27.702 C16.821,27.702 15.058,29.468 15.058,31.645 C15.058,33.301 16.082,34.714 17.531,35.297 L17.531,41.538 L20.469,41.538 L20.469,35.297 C21.918,34.714 22.943,33.301 22.943,31.645 L22.943,31.645 Z" id="Shape" opacity="0.753789646"></path>
            </g>
        </g>
    </g>
</svg>