<?xml version="1.0" encoding="UTF-8" standalone="no"?>
<svg width="146px" height="66px" viewBox="0 0 146 66" version="1.1" xmlns="http://www.w3.org/2000/svg" xmlns:xlink="http://www.w3.org/1999/xlink">
    <!-- Generator: Sketch 3.6.1 (26313) - http://www.bohemiancoding.com/sketch -->
    <title>Luxaflexvector</title>
    <desc>Created with Sketch.</desc>
    <defs></defs>
    <g id="Page-1" stroke="none" stroke-width="1" fill="none" fill-rule="evenodd">
        <g id="Luxaflex" fill="#FA3363">
            <path d="M74.853,42.313 C75.061,40.239 75.92,39.499 76.749,38.847 C78.053,37.81 79.653,37.691 80.541,37.632 C82.645,37.454 83.859,38.017 85.193,38.284 C86.792,34.699 86.496,34.196 85.844,34.107 C85.193,34.018 84.63,34.788 84.215,35.262 C83.119,36.507 82.467,36.832 81.667,36.773 C80.393,36.684 79.919,35.262 81.312,33.84 C82.052,33.1 83,32.329 86.318,32.359 C90.022,32.388 92.214,34.699 91.236,37.07 L89.044,42.58 C88.896,42.995 88.57,43.735 88.836,43.883 C89.222,44.091 89.844,43.409 90.318,43.468 C90.97,43.558 90.851,44.091 90.407,44.624 C89.281,46.342 85.074,47.675 83.415,44.565 C81.815,45.661 80.334,46.372 78.734,46.313 C76.69,46.254 74.675,44.417 74.853,42.313 L74.853,42.313 Z M79.949,42.847 C79.771,43.794 80.541,44.091 81.43,43.883 C82.141,43.735 83.059,43.084 83.445,41.839 L84.215,39.588 C81.489,39.677 80.245,41.484 79.949,42.847 L79.949,42.847 Z M63.27,35.766 C62.914,34.64 62.855,33.959 61.403,33.781 L61.848,32.507 L71.18,32.507 L70.795,34.048 L69.402,34.048 C68.928,34.048 68.513,34.048 68.839,34.996 L69.669,37.395 L73.491,34.759 C74.142,34.314 73.639,34.018 73.076,34.018 L71.95,33.988 L72.276,32.507 L79.416,32.507 L78.734,34.077 C78.171,34.077 77.875,34.225 77.283,34.492 C76.779,34.729 75.89,35.262 74.498,36.21 L70.232,39.173 L71.802,43.824 C72.157,44.92 73.046,44.742 73.965,44.742 L73.579,46.224 L64.455,46.224 L64.781,44.772 C65.699,44.772 66.143,44.891 65.877,43.913 L65.491,42.609 L63.418,44.091 C62.559,44.683 63.032,44.713 63.536,44.891 L63.151,46.224 L57.907,46.224 L58.47,44.742 C59.625,44.742 60.603,44.031 60.929,43.824 L64.899,41.01 L63.27,35.766 L63.27,35.766 Z M129.691,35.766 C129.365,34.64 129.365,34.018 127.913,33.84 L128.268,32.507 L137.601,32.507 L137.215,34.048 L135.823,34.048 C135.379,34.048 134.964,34.107 135.26,34.996 L136.09,37.395 L139.911,34.759 C140.504,34.344 139.971,34.018 139.497,34.018 L138.371,33.988 L138.697,32.507 L145.836,32.507 L145.155,34.077 C144.592,34.077 144.296,34.225 143.703,34.492 C143.2,34.729 142.252,35.292 140.919,36.21 L136.652,39.173 L138.223,43.824 C138.519,44.742 139.822,44.742 140.741,44.742 L140.356,46.224 L130.875,46.224 L131.201,44.772 C132.12,44.772 132.564,44.802 132.298,43.913 L131.912,42.609 L129.839,44.091 C129.009,44.683 129.454,44.713 129.957,44.891 L129.572,46.224 L123.647,46.224 L124.21,44.742 C124.476,44.742 125.424,44.713 125.958,44.624 C126.758,44.505 127.113,43.972 127.35,43.824 L131.32,41.01 L129.691,35.766 L129.691,35.766 Z M41.05,41.158 L43.48,35.262 C43.805,34.462 43.568,34.255 41.82,34.018 L42.443,32.507 L50.797,32.507 L46.679,41.721 C45.938,43.439 45.938,44.061 47.183,43.202 L49.464,41.602 C51.093,40.477 51.419,40.417 51.893,39.114 L53.464,34.996 C53.641,34.462 53.76,33.959 51.923,33.959 L52.486,32.507 L60.485,32.507 L55.982,43.113 C55.36,44.594 55.626,44.624 56.87,44.654 L56.278,46.224 L49.227,46.224 L49.079,46.016 L50.471,42.461 L46.235,45.424 C43.035,47.646 38.769,46.698 41.05,41.158 L41.05,41.158 Z M102.968,43.084 L112.389,21.99 C112.744,21.19 111.589,20.864 110.908,20.864 L111.53,19.264 L119.351,19.264 L108.686,43.765 C107.767,45.898 108.656,44.891 110.256,44.891 L109.871,46.224 L99.709,46.224 L100.331,44.594 C102.168,44.594 102.524,44.12 102.968,43.084 L102.968,43.084 Z M117.603,41.632 C117.188,44.328 118.107,44.891 119.381,44.802 C120.329,44.742 120.981,44.209 121.603,43.528 L121.84,43.38 L123.054,43.468 L123.114,43.705 C121.928,45.572 119.707,46.579 117.811,46.55 C115.144,46.52 112.833,45.068 112.922,41.454 C113.011,36.981 118.018,32.3 122.728,32.3 C126.135,32.3 127.735,34.314 127.676,35.914 C127.617,39.321 124.713,41.187 117.603,41.632 L117.603,41.632 Z M118.758,39.41 C122.64,38.373 124.032,36.27 123.825,34.818 C123.706,34.137 122.521,34.255 121.78,34.907 C120.921,35.736 119.914,36.536 118.758,39.41 L118.758,39.41 Z M46.501,21.131 C52.338,7.088 57.759,3.148 64.306,2.615 C68.01,2.318 73.757,3.385 72.779,8.599 C71.209,16.924 62.588,22.642 53.967,21.901 C52.101,21.753 52.93,23.767 53.552,23.797 C63.684,24.39 69.491,20.657 73.698,16.331 C76.394,13.576 78.171,9.192 77.164,5.933 C75.712,1.252 68.809,0.689 65.106,0.748 C53.967,0.956 44.339,6.614 39.154,19.087 C35.362,28.241 31.303,35.973 24.252,44.505 C20.46,43.854 15.72,42.906 10.625,43.172 C6.951,43.35 1.707,43.765 0.463,48.149 C-0.722,52.356 4.907,54.608 9.351,54.756 C15.394,54.963 21.142,52.652 25.704,49.305 L86.526,58.429 C84.926,61.629 82.763,63.673 78.023,64.414 C78.023,65.095 78.438,65.569 80.038,65.569 C85.282,65.569 89.251,62.844 91.473,59.052 L109.486,61.096 C117.988,62.044 124.684,61.303 131.024,59.052 C136.119,57.245 140.859,54.252 145.096,50.105 C146.162,48.979 145.511,48.238 144.533,48.979 C136.001,55.437 126.817,57.867 113.9,56.326 L94.021,53.956 L102.257,34.521 L104.36,34.521 C105.486,34.462 106.108,32.507 105.071,32.507 L103.235,32.507 L107.204,23.027 C109.663,17.102 113.722,11.354 117.396,11.858 C116.714,12.421 115.885,13.458 116.003,14.257 C116.122,15.057 116.803,16.45 118.581,16.331 C120.447,16.213 121.899,15.294 122.195,13.517 C122.61,11.058 119.914,10.288 117.514,10.258 C111.352,10.11 105.486,14.169 102.257,21.486 L97.369,32.507 L94.969,32.507 C93.606,32.507 92.895,34.521 94.406,34.521 L96.539,34.521 L88.303,53.186 L31.244,45.424 C37.732,39.114 42.383,30.937 46.501,21.131 L46.501,21.131 Z M8.018,52.208 C5.351,52.119 1.589,50.816 2.537,48.594 C3.011,47.498 5.529,46.757 8.462,46.727 C12.462,46.698 17.705,47.646 20.46,48.209 C17.172,51.497 12.313,52.327 8.018,52.208 L8.018,52.208 Z" id="Fill-3"></path>
        </g>
    </g>
</svg>