<?xml version="1.0" encoding="UTF-8" standalone="no"?>
<svg width="60px" height="58px" viewBox="0 0 60 58" version="1.1" xmlns="http://www.w3.org/2000/svg" xmlns:xlink="http://www.w3.org/1999/xlink">
    <!-- Generator: Sketch 3.6.1 (26313) - http://www.bohemiancoding.com/sketch -->
    <title>noun_325592_cc</title>
    <desc>Created with Sketch.</desc>
    <defs></defs>
    <g id="Page-1" stroke="none" stroke-width="1" fill="none" fill-rule="evenodd">
        <g id="noun_325592_cc" fill="#4A4A4A">
            <g id="Group">
                <path d="M29.61,22.82 C27.68,22.82 26.11,24.39 26.11,26.32 C26.11,28.25 27.68,29.82 29.61,29.82 C31.54,29.82 33.11,28.25 33.11,26.32 C33.11,24.39 31.54,22.82 29.61,22.82 L29.61,22.82 Z M29.61,27.82 C28.78,27.82 28.11,27.15 28.11,26.32 C28.11,25.49 28.78,24.82 29.61,24.82 C30.44,24.82 31.11,25.49 31.11,26.32 C31.11,27.15 30.44,27.82 29.61,27.82 L29.61,27.82 Z" id="Shape"></path>
                <path d="M42.74,32.44 C42.93,32.04 43.1,31.63 43.25,31.21 C43.28,31.12 43.32,31.02 43.35,30.93 C43.49,30.53 43.6,30.12 43.7,29.7 C43.72,29.6 43.75,29.51 43.77,29.42 C43.99,28.42 44.11,27.39 44.11,26.33 C44.11,22.76 42.81,19.5 40.66,16.97 C40.66,16.97 40.66,16.97 40.66,16.96 C40.65,16.95 40.63,16.93 40.62,16.92 C40.3,16.54 39.95,16.18 39.59,15.84 C39.54,15.79 39.48,15.74 39.43,15.69 C39.09,15.38 38.74,15.08 38.38,14.8 C38.32,14.76 38.26,14.71 38.2,14.67 C37.83,14.39 37.44,14.13 37.04,13.89 C36.99,13.86 36.94,13.83 36.88,13.79 C36.44,13.54 36,13.3 35.53,13.09 C35.52,13.08 35.51,13.08 35.5,13.07 L35.5,13.07 C33.7,12.26 31.71,11.81 29.61,11.81 C27.47,11.81 25.45,12.29 23.62,13.12 L23.61,13.12 C23.6,13.13 23.58,13.13 23.57,13.14 C23.11,13.35 22.67,13.59 22.24,13.84 C22.19,13.87 22.14,13.9 22.09,13.93 C21.69,14.17 21.31,14.43 20.94,14.71 C20.88,14.76 20.81,14.81 20.75,14.85 C20.4,15.12 20.07,15.4 19.75,15.7 C19.68,15.76 19.61,15.83 19.54,15.89 C19.2,16.22 18.88,16.56 18.57,16.92 C18.54,16.95 18.51,16.98 18.49,17.01 L18.49,17.02 C16.39,19.54 15.12,22.77 15.12,26.3 C15.12,26.81 15.15,27.31 15.2,27.8 L15.2,27.8 C15.2,27.83 15.21,27.86 15.21,27.89 C15.26,28.38 15.34,28.86 15.44,29.33 C15.47,29.45 15.5,29.56 15.53,29.68 C15.63,30.08 15.73,30.47 15.86,30.85 C15.89,30.95 15.93,31.05 15.97,31.15 C16.12,31.57 16.28,31.97 16.47,32.37 C16.5,32.43 16.53,32.49 16.55,32.54 C16.77,33 17.01,33.44 17.27,33.86 C17.28,33.87 17.28,33.88 17.28,33.89 C17.28,33.89 17.28,33.9 17.29,33.9 C19.85,38.02 24.41,40.78 29.61,40.78 L29.67,40.78 L29.73,40.78 C30.17,40.78 30.62,40.75 31.07,40.71 L31.09,40.71 C31.83,40.64 32.58,40.51 33.33,40.32 C33.4,40.3 33.45,40.27 33.51,40.24 C37.03,39.25 40,36.98 41.89,33.95 C41.89,33.95 41.89,33.95 41.9,33.94 C41.91,33.93 41.91,33.92 41.91,33.92 C42.18,33.49 42.42,33.05 42.64,32.59 C42.68,32.56 42.71,32.5 42.74,32.44 L42.74,32.44 Z M42.11,26.34 L37.95,24.71 C37.83,24.08 37.64,23.48 37.39,22.91 L39.94,19.29 C41.31,21.3 42.12,23.72 42.12,26.32 C42.11,26.33 42.11,26.33 42.11,26.34 L42.11,26.34 Z M41.89,28.6 C41.86,28.79 41.82,28.97 41.77,29.15 C41.73,29.32 41.69,29.49 41.64,29.66 C41.58,29.87 41.52,30.07 41.46,30.28 C41.43,30.38 41.39,30.48 41.35,30.58 C41.15,31.14 40.91,31.68 40.62,32.21 L36.87,30.74 C36.89,30.7 36.91,30.66 36.93,30.63 C37.06,30.42 37.17,30.2 37.28,29.97 C37.31,29.91 37.34,29.85 37.37,29.79 C37.63,29.21 37.83,28.6 37.95,27.96 C37.96,27.9 37.97,27.84 37.98,27.79 C38.02,27.54 38.06,27.29 38.08,27.04 C38.08,27 38.09,26.96 38.1,26.92 L41.93,28.42 C41.91,28.47 41.91,28.53 41.89,28.6 L41.89,28.6 Z M35.24,29.56 C35.22,29.59 35.21,29.61 35.19,29.64 C35.01,29.95 34.8,30.24 34.56,30.52 C33.41,31.87 31.72,32.74 29.83,32.81 C29.02,32.82 28.21,32.69 27.43,32.39 C27.34,32.35 27.24,32.34 27.15,32.33 C26.16,31.93 25.3,31.29 24.63,30.48 C24.41,30.21 24.21,29.93 24.03,29.63 C24.01,29.59 23.99,29.56 23.96,29.52 C23.79,29.22 23.65,28.92 23.53,28.6 C23.51,28.56 23.5,28.52 23.48,28.48 C23.37,28.16 23.28,27.83 23.21,27.5 C23.2,27.46 23.2,27.42 23.19,27.37 C23.13,27.02 23.1,26.67 23.1,26.32 C23.1,26.04 23.12,25.77 23.16,25.5 C23.26,24.73 23.49,24 23.83,23.34 C23.92,23.16 24.03,22.98 24.14,22.81 C24.15,22.8 24.16,22.78 24.17,22.77 C25.03,21.46 26.34,20.49 27.86,20.06 C28.42,19.9 29.01,19.81 29.61,19.81 C30.19,19.81 30.74,19.89 31.27,20.03 C31.48,20.09 31.69,20.15 31.9,20.23 C31.91,20.23 31.91,20.23 31.92,20.24 C32.12,20.32 32.32,20.4 32.51,20.5 C32.52,20.5 32.53,20.51 32.54,20.51 C32.72,20.6 32.9,20.71 33.08,20.82 C33.09,20.83 33.11,20.84 33.13,20.85 C33.3,20.96 33.46,21.07 33.61,21.19 C33.63,21.21 33.65,21.22 33.67,21.24 C33.82,21.36 33.96,21.48 34.1,21.61 C34.12,21.63 34.15,21.65 34.17,21.68 C34.31,21.81 34.44,21.96 34.56,22.1 C34.58,22.12 34.6,22.14 34.61,22.16 C34.89,22.5 35.14,22.86 35.35,23.25 C35.72,23.94 35.97,24.71 36.07,25.53 C36.07,25.53 36.07,25.53 36.07,25.54 C36.1,25.79 36.12,26.05 36.12,26.31 C36.12,26.67 36.08,27.03 36.02,27.38 C36.01,27.42 36.01,27.46 36,27.5 C35.94,27.84 35.84,28.18 35.73,28.5 C35.72,28.54 35.7,28.57 35.69,28.61 C35.56,28.94 35.41,29.26 35.24,29.56 L35.24,29.56 Z M32.08,34.49 L32.09,38.57 C31.35,38.72 30.58,38.8 29.79,38.81 C29.63,38.81 29.48,38.81 29.32,38.8 C29.16,38.8 29.01,38.79 28.85,38.78 C28.59,38.76 28.34,38.74 28.08,38.71 L28.07,34.68 C28.4,34.74 28.73,34.78 29.07,34.8 L29.11,34.8 C29.28,34.81 29.44,34.83 29.61,34.83 C29.69,34.83 29.77,34.82 29.85,34.82 C30.04,34.82 30.24,34.81 30.43,34.79 C30.46,34.79 30.5,34.78 30.53,34.78 C31.06,34.72 31.58,34.64 32.08,34.49 L32.08,34.49 Z M22.32,30.69 L18.57,32.16 C18.29,31.64 18.06,31.11 17.86,30.56 C17.82,30.45 17.78,30.34 17.74,30.23 C17.68,30.05 17.63,29.86 17.57,29.67 C17.52,29.48 17.46,29.28 17.42,29.09 C17.38,28.93 17.35,28.77 17.32,28.61 C17.3,28.53 17.3,28.44 17.28,28.36 L21.12,26.86 C21.12,26.9 21.13,26.95 21.14,26.99 C21.16,27.23 21.19,27.46 21.23,27.69 C21.24,27.77 21.25,27.84 21.27,27.92 C21.39,28.55 21.58,29.16 21.84,29.74 C21.87,29.81 21.91,29.88 21.94,29.94 C22.04,30.15 22.14,30.36 22.26,30.56 C22.28,30.6 22.3,30.64 22.32,30.69 L22.32,30.69 Z M19.22,19.38 L21.78,23.01 C21.56,23.53 21.39,24.08 21.28,24.65 L17.12,26.28 C17.12,23.73 17.9,21.36 19.22,19.38 L19.22,19.38 Z M20.62,17.66 C20.77,17.5 20.93,17.35 21.09,17.21 C21.18,17.12 21.28,17.04 21.37,16.95 C21.56,16.78 21.76,16.62 21.96,16.46 C22.01,16.42 22.06,16.38 22.11,16.35 C22.62,15.97 23.15,15.63 23.7,15.33 L26.02,18.63 C26,18.64 25.97,18.66 25.95,18.67 C25.7,18.79 25.45,18.92 25.21,19.07 C25.17,19.1 25.12,19.12 25.08,19.15 C24.83,19.31 24.58,19.48 24.35,19.67 C24.34,19.68 24.32,19.69 24.3,19.7 C23.8,20.1 23.34,20.57 22.94,21.07 C22.93,21.09 22.91,21.11 22.89,21.12 L20.52,17.76 C20.56,17.73 20.59,17.69 20.62,17.66 L20.62,17.66 Z M33.1,18.58 L35.43,15.27 C35.71,15.42 35.99,15.58 36.26,15.75 C36.28,15.76 36.29,15.77 36.31,15.78 C36.56,15.94 36.81,16.12 37.05,16.3 C37.09,16.33 37.13,16.36 37.18,16.39 C37.41,16.57 37.63,16.75 37.85,16.94 C37.9,16.98 37.95,17.03 38,17.07 C38.21,17.26 38.42,17.45 38.61,17.66 C38.62,17.67 38.62,17.67 38.63,17.68 L36.27,21.03 C36.26,21.02 36.24,21 36.23,20.99 C36.03,20.74 35.82,20.51 35.59,20.28 C35.58,20.27 35.58,20.27 35.57,20.27 C35.35,20.05 35.11,19.85 34.87,19.66 C34.82,19.62 34.78,19.59 34.73,19.56 C34.52,19.4 34.29,19.25 34.06,19.1 C34.01,19.07 33.97,19.04 33.92,19.02 C33.66,18.87 33.39,18.72 33.12,18.6 C33.11,18.58 33.11,18.58 33.1,18.58 L33.1,18.58 Z M33.55,14.46 L31.09,17.95 C30.61,17.87 30.12,17.81 29.61,17.81 C29.07,17.81 28.53,17.87 28.02,17.96 L25.57,14.49 C26.84,14.06 28.19,13.81 29.61,13.81 C30.99,13.82 32.31,14.05 33.55,14.46 L33.55,14.46 Z M19.67,33.87 L23.6,32.33 C24.31,33.04 25.15,33.62 26.07,34.04 L26.08,38.3 C23.5,37.54 21.27,35.97 19.67,33.87 L19.67,33.87 Z M34.09,37.98 L34.08,33.54 C34.62,33.2 35.13,32.81 35.58,32.37 L39.52,33.92 C38.13,35.73 36.25,37.14 34.09,37.98 L34.09,37.98 Z" id="Shape"></path>
                <path d="M58.76,34.12 C58.33,33.14 57.55,32.39 56.55,32 L51.78,30.13 C51.99,28.89 52.11,27.62 52.11,26.32 C52.11,20.32 49.74,14.86 45.89,10.82 L49.07,6.3 C49.69,5.43 49.92,4.37 49.74,3.31 C49.56,2.26 48.97,1.34 48.1,0.72 C47.43,0.25 46.63,0 45.81,0 C44.51,0 43.28,0.63 42.54,1.7 L39.45,6.09 C36.48,4.64 33.14,3.82 29.62,3.82 C26.06,3.82 22.69,4.66 19.69,6.13 L16.56,1.7 C15.81,0.63 14.59,0 13.29,0 C12.46,0 11.67,0.25 10.99,0.73 C10.12,1.35 9.53,2.26 9.35,3.32 C9.17,4.37 9.41,5.43 10.02,6.3 L13.25,10.89 C9.45,14.92 7.11,20.35 7.11,26.31 C7.11,27.59 7.22,28.85 7.43,30.07 L2.54,32 C0.49,32.81 -0.53,35.13 0.28,37.18 C0.88,38.72 2.35,39.72 4,39.72 C4.5,39.72 4.99,39.63 5.46,39.44 L10.16,37.6 C13.5,43.34 19.3,47.47 26.1,48.54 L26.11,53.82 C26.11,56.02 27.91,57.81 30.11,57.81 L30.12,57.81 C32.33,57.81 34.12,56.01 34.11,53.8 L34.1,48.36 C40.47,47.07 45.86,43.07 49.04,37.63 L53.63,39.43 C54.1,39.61 54.59,39.71 55.09,39.71 C56.75,39.71 58.21,38.71 58.81,37.17 C59.21,36.19 59.19,35.1 58.76,34.12 L58.76,34.12 Z M44.17,2.85 C44.78,1.98 46.08,1.75 46.96,2.36 C47.4,2.67 47.69,3.13 47.78,3.65 C47.87,4.17 47.75,4.71 47.45,5.14 L44.45,9.4 C43.45,8.52 42.37,7.73 41.23,7.03 L44.17,2.85 L44.17,2.85 Z M11.32,3.66 C11.41,3.13 11.7,2.67 12.14,2.37 C12.48,2.13 12.88,2 13.29,2 C13.94,2 14.55,2.32 14.93,2.85 L17.92,7.1 C17.91,7.1 17.91,7.11 17.9,7.11 C16.76,7.81 15.7,8.6 14.7,9.48 L11.65,5.15 C11.35,4.71 11.23,4.18 11.32,3.66 L11.32,3.66 Z M4.73,37.58 C4.49,37.67 4.25,37.72 4,37.72 C3.17,37.72 2.44,37.22 2.14,36.45 C1.74,35.42 2.25,34.26 3.27,33.86 L7.86,32.06 C8.2,33.36 8.66,34.62 9.23,35.82 L4.73,37.58 L4.73,37.58 Z M32.11,53.81 C32.11,54.91 31.22,55.81 30.11,55.81 L30.11,56.81 L30.11,55.81 C29.01,55.81 28.11,54.91 28.11,53.81 L28.1,48.75 C28.36,48.77 28.62,48.78 28.89,48.79 C29.05,48.8 29.21,48.8 29.37,48.8 C29.45,48.8 29.54,48.81 29.62,48.81 C29.7,48.81 29.77,48.8 29.85,48.8 C30.02,48.8 30.2,48.79 30.37,48.79 C30.96,48.77 31.53,48.73 32.11,48.67 L32.11,53.81 L32.11,53.81 Z M32.94,46.52 C32.94,46.53 32.94,46.52 32.94,46.52 C32.36,46.61 31.82,46.68 31.3,46.73 C30.74,46.78 30.18,46.82 29.61,46.82 C29.06,46.82 28.52,46.78 27.98,46.74 C27.73,46.72 27.48,46.7 27.21,46.67 L27.21,46.67 C20.39,45.87 14.58,41.71 11.49,35.89 L11.49,35.89 C11.45,35.82 11.42,35.75 11.39,35.68 C11.19,35.3 11.01,34.92 10.83,34.53 C10.72,34.29 10.63,34.04 10.53,33.79 C10.4,33.47 10.28,33.14 10.17,32.81 C10.1,32.59 10.02,32.37 9.96,32.15 C9.41,30.3 9.1,28.35 9.1,26.32 C9.1,20.61 11.46,15.44 15.24,11.71 L15.24,11.71 C15.25,11.7 15.25,11.7 15.26,11.69 C15.62,11.33 16,10.99 16.39,10.67 C16.58,10.51 16.77,10.36 16.96,10.21 C17.25,9.98 17.54,9.76 17.84,9.55 C18.01,9.43 18.18,9.31 18.36,9.19 C21.59,7.06 25.45,5.81 29.6,5.81 C33.1,5.81 36.39,6.69 39.27,8.24 L39.27,8.24 C39.44,8.33 39.6,8.43 39.76,8.53 C40.09,8.72 40.41,8.91 40.73,9.12 C40.96,9.27 41.19,9.43 41.42,9.59 C41.65,9.75 41.87,9.92 42.09,10.09 C42.71,10.57 43.31,11.08 43.88,11.63 L43.88,11.63 C47.7,15.36 50.09,20.55 50.09,26.3 C50.09,27.75 49.93,29.16 49.65,30.53 L49.65,30.53 L49.65,30.53 C49.54,31.07 49.4,31.59 49.24,32.11 C49.17,32.35 49.09,32.59 49.01,32.83 C48.9,33.15 48.79,33.46 48.67,33.77 C48.57,34.02 48.48,34.27 48.37,34.52 C48.18,34.96 47.97,35.38 47.75,35.8 C47.73,35.83 47.72,35.87 47.7,35.91 L47.7,35.91 C44.76,41.46 39.35,45.47 32.94,46.52 L32.94,46.52 Z M56.96,36.45 C56.57,37.45 55.38,37.98 54.37,37.58 L49.98,35.86 C50.54,34.66 51.01,33.4 51.35,32.1 L55.82,33.85 C56.32,34.05 56.71,34.42 56.92,34.91 C57.14,35.41 57.15,35.95 56.96,36.45 L56.96,36.45 Z" id="Shape"></path>
            </g>
        </g>
    </g>
</svg>