<?xml version="1.0" encoding="UTF-8"?>
<svg width="95px" height="74px" viewBox="0 0 95 74" version="1.1" xmlns="http://www.w3.org/2000/svg" xmlns:xlink="http://www.w3.org/1999/xlink">
    <!-- Generator: Sketch 3.6.1 (26313) - http://www.bohemiancoding.com/sketch -->
    <title>noun_597080_cc</title>
    <desc>Created with Sketch.</desc>
    <defs></defs>
    <g id="Page-1" stroke="none" stroke-width="1" fill="none" fill-rule="evenodd">
        <g id="noun_597080_cc" fill="#000000">
            <g id="Group" transform="translate(0.000000, 0.575594)">
                <path d="M3.13368056,0.326845366 C1.39774677,0.342452695 7.75994934e-05,1.54995727 1.44646122e-16,3.03416244 L1.44646122e-16,69.8146502 C-0.00445236836,70.7222938 0.523338695,71.5714657 1.40566497,72.0762483 C2.28799125,72.5810308 3.40746328,72.674265 4.38715278,72.3245588 L29.1597222,63.4975771 L65.90625,63.4975771 L90.6128472,72.2963576 C91.5871481,72.6441515 92.7001026,72.5539678 93.5806281,72.0558756 C94.4611535,71.5577835 94.9934355,70.7172962 95,69.8146502 L95,3.03416244 C95.0070613,2.25349378 94.6196387,1.5082122 93.9371406,0.989548667 C93.2546424,0.47088513 92.3434992,0.229323342 91.4375,0.326845366 C91.1534293,0.360424165 90.8760094,0.426834001 90.6128472,0.524253902 L65.8402778,9.35123561 L29.1597222,9.35123561 L4.38715278,0.524253902 C3.98929418,0.386507021 3.56283508,0.319344251 3.13368056,0.326845366 L3.13368056,0.326845366 Z M88.6666667,7.06693683 L88.6666667,33.7170893 L69.6666667,33.7170893 L69.6666667,13.8352295 L88.6666667,7.06693683 L88.6666667,7.06693683 Z M6.33333333,7.09513805 L25.3333333,13.8634307 L25.3333333,33.7170893 L6.33333333,33.7170893 L6.33333333,7.09513805 L6.33333333,7.09513805 Z M31.6666667,14.7658698 L63.3333333,14.7658698 L63.3333333,58.0829429 L31.6666667,58.0829429 L31.6666667,14.7658698 L31.6666667,14.7658698 Z M6.33333333,39.1317234 L25.3333333,39.1317234 L25.3333333,58.985382 L6.33333333,65.7536746 L6.33333333,39.1317234 L6.33333333,39.1317234 Z M69.6666667,39.1317234 L88.6666667,39.1317234 L88.6666667,65.7536746 L69.6666667,58.985382 L69.6666667,39.1317234 L69.6666667,39.1317234 Z" id="Shape"></path>
            </g>
        </g>
    </g>
</svg>