<?xml version="1.0" encoding="UTF-8"?>
<svg width="67px" height="86px" viewBox="0 0 67 86" version="1.1" xmlns="http://www.w3.org/2000/svg" xmlns:xlink="http://www.w3.org/1999/xlink">
    <!-- Generator: Sketch 3.6.1 (26313) - http://www.bohemiancoding.com/sketch -->
    <title>noun_143171_cc</title>
    <desc>Created with Sketch.</desc>
    <defs></defs>
    <g id="Page-1" stroke="none" stroke-width="1" fill="none" fill-rule="evenodd">
        <g id="noun_143171_cc" transform="translate(-1.000000, 0.000000)" fill="#000000">
            <g id="Group">
                <path d="M22.2333333,11.825 C19.1666667,13.975 17.25,16.8416667 17.25,20.0666667 C17.25,26.5166667 24.9166667,31.7125 34.5,31.7125 C44.0833333,31.7125 51.75,26.5166667 51.75,20.0666667 C51.75,16.8416667 49.8333333,13.975 46.7666667,11.825 L52.5166667,4.12083333 C53.2833333,3.04583333 53.0916667,1.79166667 51.9416667,1.075 C50.7916667,0.358333333 49.45,0.5375 48.6833333,1.6125 L42.7416667,9.675 C40.25,8.77916667 37.375,8.24166667 34.5,8.24166667 C31.625,8.24166667 28.75,8.77916667 26.45,9.675 L20.5083333,1.6125 C19.7416667,0.5375 18.2083333,0.358333333 17.25,1.075 C16.1,1.79166667 15.9083333,3.225 16.675,4.12083333 L22.2333333,11.825 L22.2333333,11.825 Z" id="Shape"></path>
                <path d="M55.0083333,23.4708333 C52.9,30.2791667 44.6583333,35.2958333 34.5,35.2958333 C24.3416667,35.2958333 16.1,30.2791667 13.9916667,23.4708333 C6.51666667,29.9208333 1.725,39.5958333 1.725,50.525 C1.725,69.6958333 16.4833333,85.2833333 34.5,85.2833333 C52.7083333,85.2833333 67.275,69.6958333 67.275,50.525 C67.275,39.5958333 62.4833333,29.9208333 55.0083333,23.4708333 L55.0083333,23.4708333 Z M19.1666667,53.0333333 C16.1,53.0333333 13.6083333,50.7041667 13.6083333,47.8375 C13.6083333,44.9708333 16.1,42.6416667 19.1666667,42.6416667 C22.2333333,42.6416667 24.725,44.9708333 24.725,47.8375 C24.725,50.7041667 22.2333333,53.0333333 19.1666667,53.0333333 L19.1666667,53.0333333 Z M31.625,70.95 C28.9416667,70.95 26.6416667,68.8 26.6416667,66.2916667 C26.6416667,63.7833333 28.9416667,61.6333333 31.625,61.6333333 C34.3083333,61.6333333 36.6083333,63.7833333 36.6083333,66.2916667 C36.6083333,68.8 34.3083333,70.95 31.625,70.95 L31.625,70.95 Z M50.7916667,55.0041667 C47.9166667,55.0041667 45.425,52.8541667 45.425,49.9875 C45.425,47.1208333 47.725,44.9708333 50.7916667,44.9708333 C53.8583333,44.9708333 56.1583333,47.1208333 56.1583333,49.9875 C56.1583333,52.8541667 53.6666667,55.0041667 50.7916667,55.0041667 L50.7916667,55.0041667 Z" id="Shape"></path>
            </g>
        </g>
    </g>
</svg>