<?xml version="1.0" encoding="UTF-8" standalone="no"?>
<svg width="80px" height="90px" viewBox="0 0 80 90" version="1.1" xmlns="http://www.w3.org/2000/svg" xmlns:xlink="http://www.w3.org/1999/xlink">
    <!-- Generator: Sketch 3.6.1 (26313) - http://www.bohemiancoding.com/sketch -->
    <title>Shape</title>
    <desc>Created with Sketch.</desc>
    <defs></defs>
    <g id="Page-1" stroke="none" stroke-width="1" fill="none" fill-rule="evenodd">
        <g id="noun_353624_cc" transform="translate(0.000000, -1.000000)" fill="#616161">
            <g id="Group" transform="translate(0.000000, 0.637820)">
                <path d="M53,0.36218 C40.971316,0.36218 31.64022,8.77288 28.15625,19.42468 C27.7165343,20.468821 27.9024781,21.6716092 28.636967,22.5342253 C29.3714558,23.3968414 30.5292169,23.7721596 31.6301046,23.5045282 C32.7309924,23.2368968 33.5872418,22.3719625 33.84375,21.26843 C36.650342,12.68763 43.746912,6.36218 53,6.36218 C64.633519,6.36218 74,15.72859 74,27.36218 C74,37.78842 66.361341,46.72893 56.5,48.39343 C55.3927531,48.5147615 54.4438556,49.2395203 54.0354562,50.2758247 C53.6270567,51.3121291 53.8263819,52.4893934 54.5531576,53.3334988 C55.2799333,54.1776043 56.4145252,54.5496029 57.5,54.29968 C70.317319,52.13618 80,40.70354 80,27.36218 C80,12.48597 67.876141,0.36218 53,0.36218 L53,0.36218 Z M53,10.36218 C46.725546,10.36218 41.313048,13.77506 38.40625,18.86218 C37.7569199,19.7938969 37.689303,21.0123822 38.231557,22.0102232 C38.7738111,23.0080641 39.8329873,23.6142192 40.9680141,23.5762679 C42.1030408,23.5383165 43.1193613,22.862764 43.59375,21.83093 C45.510512,18.47645 48.860534,16.36218 53,16.36218 C59.110674,16.36218 64,21.2515 64,27.36218 C64,31.54923 61.874862,34.86451 58.53125,36.73718 C57.52519,37.2226976 56.8721702,38.2269458 56.8364952,39.3434633 C56.8008202,40.4599809 57.3883977,41.5038687 58.3614107,42.0526218 C59.3344237,42.6013748 60.5317378,42.5641177 61.46875,41.95593 C66.592578,39.0862 70,33.65993 70,27.36218 C70,18.00886 62.353306,10.36218 53,10.36218 L53,10.36218 Z M7.75,19.36218 C6.81043688,19.4697979 5.97660736,20.0141033 5.5,20.83093 C2.196834,26.44357 0,32.77152 0,39.36218 C0,46.06318 1.918338,52.93558 5.40625,58.86218 C6.617025,60.919498 8.033177,62.779432 9.5625,64.48718 L3.125,86.51843 C2.85955621,87.4245778 3.03616924,88.4028178 3.60172126,89.1589363 C4.16727328,89.9150547 5.05577419,90.3608257 6,90.36218 L38,90.36218 C38.9590841,90.3668974 39.8626246,89.9128084 40.4311376,89.1403723 C40.9996506,88.3679361 41.1646136,87.3702541 40.875,86.45593 L38.0625,77.29968 C38.707463,77.327246 39.355731,77.36218 40,77.36218 C46.062522,77.36218 51.766673,76.18553 57.46875,72.95593 C58.8609069,72.1623985 59.3837671,70.4149447 58.65625,68.98718 L47.90625,48.14343 L55.78125,28.45593 C56.1534307,27.5084466 56.0198058,26.4368791 55.4263381,25.6098124 C54.8328704,24.7827457 53.8605221,24.3130102 52.84375,24.36218 C52.5775452,24.3793015 52.3148127,24.431848 52.0625,24.51843 L31.4375,31.39343 L9.5,19.70593 C8.96499379,19.4166148 8.35469143,19.296734 7.75,19.36218 L7.75,19.36218 Z M9.5,26.48718 L37.75,41.54968 L51.9375,68.98718 C48.110455,70.68288 44.360311,71.36218 40,71.36218 C28.303898,71.36218 16.704611,66.21433 10.59375,55.83093 C7.656128,50.83933 6,44.89438 6,39.36218 C6,35.02456 7.436407,30.66118 9.5,26.48718 L9.5,26.48718 Z M47.8125,32.23718 L44.28125,41.11218 L42.65625,37.98718 C42.3796577,37.4428569 41.9435788,36.995876 41.40625,36.70593 L38.71875,35.26843 L47.8125,32.23718 L47.8125,32.23718 Z M14.4375,69.04968 C19.453164,72.895726 25.373096,75.370298 31.53125,76.54968 L33.9375,84.36218 L10,84.36218 L14.4375,69.04968 L14.4375,69.04968 Z" id="Shape"></path>
            </g>
        </g>
    </g>
</svg>