<?xml version="1.0" encoding="UTF-8" standalone="no"?>
<svg width="78px" height="78px" viewBox="0 0 78 78" version="1.1" xmlns="http://www.w3.org/2000/svg" xmlns:xlink="http://www.w3.org/1999/xlink">
    <!-- Generator: Sketch 3.6.1 (26313) - http://www.bohemiancoding.com/sketch -->
    <title>noun_607230_cc</title>
    <desc>Created with Sketch.</desc>
    <defs></defs>
    <g id="Page-1" stroke="none" stroke-width="1" fill="none" fill-rule="evenodd">
        <g id="noun_607230_cc" fill="#616161">
            <path d="M63,37.5 L68,37.5 C68,22.336 55.664,10 40.5,10 L40.5,15 C52.907,15 63,25.093 63,37.5 L63,37.5 Z" id="Shape"></path>
            <path d="M75.5,55 L55.5,47.5 L48,55 C38.098,48.399 29.601,39.902 23,30 L30.5,22.5 L23,2.5 L21.602,2.5 C16.095,2.5 10.813,4.688 6.918,8.582 L6.918,8.582 C2.809,12.691 0.5,18.265 0.5,24.076 L0.5,24.076 C0.5,27.956 1.53,31.766 3.485,35.117 C13,51.428 26.572,65 42.883,74.515 C46.234,76.47 50.044,77.5 53.924,77.5 C59.735,77.5 65.309,75.191 69.418,71.082 L69.418,71.082 C73.312,67.188 75.5,61.906 75.5,56.398 L75.5,55 L75.5,55 Z" id="Shape"></path>
            <path d="M40.5,0 L40.5,5 C58.42,5 73,19.58 73,37.5 L78,37.5 C78,16.822 61.178,0 40.5,0 L40.5,0 Z" id="Shape"></path>
        </g>
    </g>
</svg>