<?xml version="1.0" encoding="UTF-8" standalone="no"?>
<svg width="92px" height="74px" viewBox="0 0 92 74" version="1.1" xmlns="http://www.w3.org/2000/svg" xmlns:xlink="http://www.w3.org/1999/xlink">
    <!-- Generator: Sketch 3.6.1 (26313) - http://www.bohemiancoding.com/sketch -->
    <title>Group</title>
    <desc>Created with Sketch.</desc>
    <defs></defs>
    <g id="Page-1" stroke="none" stroke-width="1" fill="none" fill-rule="evenodd">
        <g id="noun_110773_cc" fill="#4A4A4A">
            <g id="Group">
                <path d="M17.1,62.1 L16.6,67.2 L86.7,73.9 L91.5,24 L83.7,23.4 L83.4,28.5 L85.9,28.7 L82.1,68.3 L17.1,62.1 Z" id="Shape"></path>
                <path d="M0.1,0.5 L0.1,50.6 L70.5,50.6 L70.5,0.5 L0.1,0.5 L0.1,0.5 Z M65.4,45.6 L5.2,45.6 L5.2,5.7 L65.4,5.7 L65.4,45.6 L65.4,45.6 Z" id="Shape"></path>
                <path d="M8.5,53.4 L8.2,58.4 L78.4,62.9 L81.6,12.8 L73.3,12.2 L73.3,17.3 L76.1,17.7 L73.6,57.4 L8.5,53.4 Z" id="Shape"></path>
            </g>
        </g>
    </g>
</svg>