<?xml version="1.0" encoding="UTF-8" standalone="no"?>
<svg width="48px" height="90px" viewBox="0 0 48 90" version="1.1" xmlns="http://www.w3.org/2000/svg" xmlns:xlink="http://www.w3.org/1999/xlink">
    <!-- Generator: Sketch 3.6.1 (26313) - http://www.bohemiancoding.com/sketch -->
    <title>Shape</title>
    <desc>Created with Sketch.</desc>
    <defs></defs>
    <g id="Page-1" stroke="none" stroke-width="1" fill="none" fill-rule="evenodd">
        <g id="noun_161181_cc" fill="#4A4A4A">
            <path d="M47.2,77.4 C43.1,85.1 35.1,89.5 26.9,89.5 C23.2,89.5 19.5,88.6 16.1,86.8 C12.2,84.7 9,81.5 6.9,77.7 L5.3,78.2 C5.1,78.3 4.9,78.3 4.7,78.3 C3.8,78.3 2.9,77.7 2.6,76.8 C2.3,75.7 2.9,74.4 4,74.1 L5.1,73.8 C5,73.6 5,73.4 4.9,73.3 C4.7,72.7 4.6,72 4.4,71.4 L3.2,71.8 C3,71.9 2.8,71.9 2.6,71.9 C1.7,71.9 0.8,71.3 0.5,70.4 C0.2,69.3 0.8,68 1.9,67.7 L3.8,67.1 C3.7,63.2 4.6,59.4 6.5,55.8 C9.4,50.4 14.2,46.4 20.1,44.7 C26,42.9 32.2,43.6 37.6,46.5 C38.7,47.1 39,48.4 38.5,49.4 C37.9,50.5 36.6,50.8 35.6,50.3 C31.2,47.9 26.2,47.4 21.4,48.9 C16.6,50.3 12.7,53.5 10.3,57.9 C9,60.4 8.2,63.1 8.1,65.8 L35.2,57.6 C36.3,57.3 37.6,57.9 37.9,59 C38.2,60.1 37.6,61.4 36.5,61.7 L8.5,70.1 C8.6,70.7 8.8,71.4 9,72 C9.1,72.2 9.1,72.4 9.2,72.5 L31.4,65.8 C32.5,65.5 33.8,66.1 34.1,67.2 C34.4,68.3 33.8,69.6 32.7,69.9 L11.1,76.4 C12.8,79.1 15.2,81.4 18.1,83 C27.2,87.9 38.5,84.5 43.4,75.4 C44,74.3 45.3,74 46.3,74.5 C47.4,75 47.8,76.3 47.2,77.4 L47.2,77.4 Z M11,27.7 C12.2,27.7 13.2,26.7 13.2,25.5 L13.2,2.2 C13.2,1 12.2,0 11,0 C9.8,0 8.8,1 8.8,2.2 L8.8,25.6 C8.8,26.8 9.8,27.7 11,27.7 L11,27.7 Z M24.2,37.9 C25.4,37.9 26.4,36.9 26.4,35.7 L26.4,24 C26.4,22.8 25.4,21.8 24.2,21.8 C23,21.8 22,22.8 22,24 L22,35.7 C22.1,36.9 23,37.9 24.2,37.9 L24.2,37.9 Z M37,32 C38.2,32 39.2,31 39.2,29.8 L39.2,12.5 C39.2,11.3 38.2,10.3 37,10.3 C35.8,10.3 34.8,11.3 34.8,12.5 L34.8,29.9 C34.8,31.1 35.8,32 37,32 L37,32 Z" id="Shape"></path>
        </g>
    </g>
</svg>