<?xml version="1.0" encoding="UTF-8" standalone="no"?>
<svg width="92px" height="88px" viewBox="0 0 92 88" version="1.1" xmlns="http://www.w3.org/2000/svg" xmlns:xlink="http://www.w3.org/1999/xlink">
    <!-- Generator: Sketch 3.6.1 (26313) - http://www.bohemiancoding.com/sketch -->
    <title>noun_68905_cc</title>
    <desc>Created with Sketch.</desc>
    <defs></defs>
    <g id="Page-1" stroke="none" stroke-width="1" fill="none" fill-rule="evenodd">
        <g id="noun_68905_cc" fill="#000000">
            <path d="M67.424,65.648 L31.34,65.648 C14.364,65.648 0.02,50.664 0.02,32.92 C0.02,15.172 14.36,0.188 31.34,0.188 C41.776,0.188 51.296,5.256 57.148,13.816 C60.448,12.244 63.9,11.46 67.424,11.46 C80.732,11.46 91.976,23.356 91.976,37.408 C91.984,50.484 81.252,65.648 67.424,65.648 L67.424,65.648 Z M31.34,4.2 C16.532,4.2 4.02,17.356 4.02,32.936 C4.02,48.516 16.528,61.672 31.34,61.672 L67.424,61.672 C79,61.672 87.976,48.656 87.976,37.444 C87.976,25.748 78.376,15.5 67.424,15.5 C63.992,15.5 60.624,16.416 57.428,18.212 L55.736,19.164 L54.736,17.5 C49.74,9.164 40.992,4.2 31.34,4.2 L31.34,4.2 Z" id="Shape"></path>
            <path d="M3.168,79.812 C2.684,79.812 2.2,79.64 1.816,79.28 C1,78.536 0.948,77.272 1.692,76.46 L5.36,72.46 C6.104,71.64 7.368,71.576 8.188,72.344 C9.004,73.096 9.056,74.352 8.312,75.164 L4.644,79.164 C4.252,79.592 3.708,79.812 3.168,79.812 L3.168,79.812 Z" id="Shape"></path>
            <path d="M27.168,79.812 C26.684,79.812 26.2,79.64 25.816,79.28 C25,78.536 24.948,77.272 25.692,76.46 L29.36,72.46 C30.108,71.64 31.368,71.576 32.188,72.344 C33.004,73.096 33.056,74.352 32.312,75.164 L28.644,79.164 C28.252,79.592 27.708,79.812 27.168,79.812 L27.168,79.812 Z" id="Shape"></path>
            <path d="M51.172,79.812 C50.688,79.812 50.204,79.64 49.82,79.28 C49,78.536 48.948,77.272 49.696,76.46 L53.36,72.46 C54.112,71.64 55.376,71.576 56.188,72.344 C57.008,73.096 57.06,74.352 56.312,75.164 L52.648,79.164 C52.252,79.592 51.712,79.812 51.172,79.812 L51.172,79.812 Z" id="Shape"></path>
            <path d="M75.172,79.812 C74.688,79.812 74.204,79.64 73.82,79.28 C73,78.536 72.948,77.272 73.696,76.46 L77.36,72.46 C78.112,71.64 79.368,71.576 80.188,72.344 C81.008,73.096 81.06,74.352 80.312,75.164 L76.648,79.164 C76.252,79.592 75.712,79.812 75.172,79.812 L75.172,79.812 Z" id="Shape"></path>
            <path d="M11.168,87.812 C10.684,87.812 10.2,87.64 9.816,87.28 C9,86.536 8.948,85.272 9.692,84.46 L13.36,80.46 C14.108,79.648 15.368,79.576 16.188,80.344 C17.004,81.096 17.056,82.352 16.312,83.164 L12.644,87.164 C12.252,87.592 11.708,87.812 11.168,87.812 L11.168,87.812 Z" id="Shape"></path>
            <path d="M35.168,87.812 C34.684,87.812 34.2,87.64 33.816,87.28 C33,86.536 32.948,85.272 33.692,84.46 L37.36,80.46 C38.104,79.648 39.368,79.576 40.188,80.344 C41.004,81.096 41.056,82.352 40.312,83.164 L36.644,87.164 C36.252,87.592 35.708,87.812 35.168,87.812 L35.168,87.812 Z" id="Shape"></path>
            <path d="M59.172,87.812 C58.688,87.812 58.204,87.64 57.82,87.28 C57,86.536 56.948,85.272 57.696,84.46 L61.36,80.46 C62.108,79.648 63.368,79.576 64.188,80.344 C65.008,81.096 65.06,82.352 64.312,83.164 L60.648,87.164 C60.252,87.592 59.712,87.812 59.172,87.812 L59.172,87.812 Z" id="Shape"></path>
            <path d="M83.172,87.812 C82.688,87.812 82.204,87.64 81.82,87.28 C81,86.536 80.948,85.272 81.696,84.46 L85.36,80.46 C86.112,79.648 87.368,79.576 88.188,80.344 C89.008,81.096 89.06,82.352 88.312,83.164 L84.648,87.164 C84.252,87.592 83.712,87.812 83.172,87.812 L83.172,87.812 Z" id="Shape"></path>
        </g>
    </g>
</svg>