<?xml version="1.0" encoding="UTF-8" standalone="no"?>
<svg width="46px" height="54px" viewBox="0 0 46 54" version="1.1" xmlns="http://www.w3.org/2000/svg" xmlns:xlink="http://www.w3.org/1999/xlink">
    <!-- Generator: Sketch 3.6.1 (26313) - http://www.bohemiancoding.com/sketch -->
    <title>noun_554364_cc</title>
    <desc>Created with Sketch.</desc>
    <defs></defs>
    <g id="Page-1" stroke="none" stroke-width="1" fill="none" fill-rule="evenodd">
        <g id="noun_554364_cc" fill="#000000">
            <g id="Group">
                <path d="M45,10.5 C35.916,10.5 31.5,7.393 31.5,1 C31.5,0.724 31.276,0.5 31,0.5 L15,0.5 C14.724,0.5 14.5,0.724 14.5,1 C14.5,7.393 10.084,10.5 1,10.5 C0.724,10.5 0.5,10.724 0.5,11 L0.5,29 C0.5,39.1 21.823,52.841 22.731,53.421 C22.813,53.474 22.906,53.5 23,53.5 C23.094,53.5 23.187,53.474 23.269,53.421 C24.177,52.841 45.5,39.1 45.5,29 L45.5,11 C45.5,10.724 45.276,10.5 45,10.5 L45,10.5 Z M44.5,29 C44.5,37.971 25.502,50.759 23,52.403 C20.499,50.759 1.5,37.971 1.5,29 L1.5,11.497 C10.562,11.379 15.265,8.018 15.491,1.5 L30.509,1.5 C30.736,8.017 35.439,11.378 44.5,11.497 L44.5,29 L44.5,29 Z" id="Shape"></path>
                <path d="M33,24.5 L31.475,24.5 C31.428,23.705 31.275,22.94 31.024,22.219 L32.431,21.636 C32.686,21.531 32.807,21.238 32.702,20.983 C32.596,20.728 32.301,20.608 32.049,20.712 L30.64,21.296 C30.296,20.592 29.861,19.943 29.346,19.364 L30.426,18.283 C30.621,18.088 30.621,17.771 30.426,17.576 C30.231,17.381 29.914,17.381 29.719,17.576 L28.639,18.657 C28.06,18.142 27.411,17.706 26.707,17.364 L27.29,15.953 C27.395,15.698 27.274,15.406 27.019,15.3 C26.764,15.195 26.47,15.316 26.366,15.571 L25.784,16.979 C25.061,16.728 24.296,16.573 23.501,16.527 L23.501,15 C23.501,14.724 23.277,14.5 23.001,14.5 C22.725,14.5 22.501,14.724 22.501,15 L22.501,16.525 C21.706,16.571 20.941,16.725 20.22,16.976 L19.637,15.569 C19.532,15.314 19.239,15.194 18.984,15.298 C18.729,15.403 18.608,15.696 18.713,15.951 L19.297,17.36 C18.592,17.703 17.943,18.139 17.364,18.654 L16.283,17.573 C16.088,17.378 15.771,17.378 15.576,17.573 C15.381,17.768 15.381,18.085 15.576,18.28 L16.657,19.361 C16.141,19.94 15.706,20.589 15.363,21.293 L13.953,20.71 C13.7,20.604 13.406,20.725 13.3,20.981 C13.195,21.236 13.316,21.529 13.571,21.634 L14.979,22.217 C14.728,22.939 14.574,23.704 14.527,24.499 L13,24.499 C12.724,24.499 12.5,24.723 12.5,24.999 C12.5,25.275 12.724,25.499 13,25.499 L14.525,25.499 C14.571,26.294 14.726,27.059 14.977,27.781 L13.57,28.363 C13.315,28.468 13.194,28.761 13.299,29.016 C13.379,29.208 13.565,29.325 13.761,29.325 C13.825,29.325 13.89,29.313 13.952,29.287 L15.361,28.704 C15.704,29.408 16.14,30.057 16.655,30.637 L15.574,31.717 C15.379,31.912 15.379,32.229 15.574,32.424 C15.672,32.522 15.8,32.57 15.928,32.57 C16.056,32.57 16.184,32.521 16.282,32.424 L17.363,31.344 C17.942,31.859 18.591,32.295 19.296,32.638 L18.712,34.048 C18.607,34.303 18.728,34.596 18.983,34.701 C19.045,34.727 19.11,34.739 19.174,34.739 C19.37,34.739 19.556,34.623 19.636,34.43 L20.219,33.022 C20.941,33.273 21.705,33.426 22.5,33.473 L22.5,35 C22.5,35.276 22.724,35.5 23,35.5 C23.276,35.5 23.5,35.276 23.5,35 L23.5,33.475 C24.295,33.428 25.061,33.275 25.782,33.023 L26.365,34.43 C26.445,34.622 26.631,34.739 26.827,34.739 C26.891,34.739 26.956,34.727 27.018,34.701 C27.273,34.596 27.394,34.303 27.289,34.048 L26.705,32.639 C27.409,32.296 28.058,31.861 28.637,31.345 L29.718,32.426 C29.816,32.524 29.944,32.572 30.072,32.572 C30.2,32.572 30.328,32.523 30.426,32.426 C30.621,32.231 30.621,31.914 30.426,31.719 L29.345,30.638 C29.861,30.059 30.296,29.41 30.639,28.706 L32.05,29.29 C32.112,29.316 32.178,29.328 32.241,29.328 C32.437,29.328 32.624,29.212 32.703,29.019 C32.808,28.763 32.687,28.471 32.432,28.366 L31.023,27.783 C31.275,27.061 31.428,26.296 31.475,25.501 L33,25.501 C33.276,25.501 33.5,25.277 33.5,25.001 C33.5,24.725 33.276,24.5 33,24.5 L33,24.5 Z M23,32.5 C18.864,32.5 15.5,29.136 15.5,25 C15.5,20.864 18.864,17.5 23,17.5 C27.136,17.5 30.5,20.864 30.5,25 C30.5,29.136 27.136,32.5 23,32.5 L23,32.5 Z" id="Shape"></path>
                <path d="M23,20.5 C20.519,20.5 18.5,22.519 18.5,25 C18.5,27.481 20.519,29.5 23,29.5 C25.481,29.5 27.5,27.481 27.5,25 C27.5,22.519 25.481,20.5 23,20.5 L23,20.5 Z M23,28.5 C21.07,28.5 19.5,26.93 19.5,25 C19.5,23.07 21.07,21.5 23,21.5 C24.93,21.5 26.5,23.07 26.5,25 C26.5,26.93 24.93,28.5 23,28.5 L23,28.5 Z" id="Shape"></path>
            </g>
        </g>
    </g>
</svg>