<?xml version="1.0" encoding="UTF-8" standalone="no"?>
<svg width="81px" height="65px" viewBox="0 0 81 65" version="1.1" xmlns="http://www.w3.org/2000/svg" xmlns:xlink="http://www.w3.org/1999/xlink">
    <!-- Generator: Sketch 3.6.1 (26313) - http://www.bohemiancoding.com/sketch -->
    <title>Shape</title>
    <desc>Created with Sketch.</desc>
    <defs></defs>
    <g id="Page-1" stroke="none" stroke-width="1" fill="none" fill-rule="evenodd">
        <g id="noun_348952_cc" fill="#4A4A4A">
            <path d="M77.5,10.5 L75.5,10.5 L75.5,34.5 C75.5,36.2 74.2,37.5 72.5,37.5 L41.5,37.5 L41.5,52.6 C44.3,53.1 46.5,55.5 46.5,58.5 C46.5,61.8 43.8,64.5 40.5,64.5 C37.2,64.5 34.5,61.8 34.5,58.5 C34.5,55.5 36.7,53.1 39.5,52.6 L39.5,37.5 L8.5,37.5 C6.8,37.5 5.5,36.2 5.5,34.5 L5.5,10.5 L3.5,10.5 C1.8,10.5 0.5,9.2 0.5,7.5 L0.5,3.5 C0.5,1.8 1.8,0.5 3.5,0.5 L77.5,0.5 C79.2,0.5 80.5,1.8 80.5,3.5 L80.5,7.5 C80.5,9.2 79.2,10.5 77.5,10.5 L77.5,10.5 Z M37.5,58.5 C37.5,60.2 38.8,61.5 40.5,61.5 C42.2,61.5 43.5,60.2 43.5,58.5 C43.5,56.8 42.2,55.5 40.5,55.5 C38.8,55.5 37.5,56.8 37.5,58.5 L37.5,58.5 Z" id="Shape"></path>
        </g>
    </g>
</svg>