<?xml version="1.0" encoding="UTF-8" standalone="no"?>
<svg width="88px" height="92px" viewBox="0 0 88 92" version="1.1" xmlns="http://www.w3.org/2000/svg" xmlns:xlink="http://www.w3.org/1999/xlink">
    <!-- Generator: Sketch 3.6.1 (26313) - http://www.bohemiancoding.com/sketch -->
    <title>noun_68907_cc</title>
    <desc>Created with Sketch.</desc>
    <defs></defs>
    <g id="Page-1" stroke="none" stroke-width="1" fill="none" fill-rule="evenodd">
        <g id="noun_68907_cc" fill="#000000">
            <path d="M44,72 C28.56,72 16,59.436 16,44 C16,28.564 28.56,16 44,16 C59.436,16 72,28.564 72,44 C72,59.436 59.436,72 44,72 L44,72 Z M44,20 C30.764,20 20,30.764 20,44 C20,57.236 30.764,68 44,68 C57.236,68 68,57.236 68,44 C68,30.764 57.236,20 44,20 L44,20 Z" id="Shape"></path>
            <path d="M44,92 C42.896,92 42,91.1 42,90 L42,78 C42,76.9 42.896,76 44,76 C45.104,76 46,76.9 46,78 L46,90 C46,91.1 45.104,92 44,92 L44,92 Z" id="Shape"></path>
            <path d="M44,12 C42.896,12 42,11.1 42,10 L42,2 C42,0.9 42.896,0 44,0 C45.104,0 46,0.9 46,2 L46,10 C46,11.1 45.104,12 44,12 L44,12 Z" id="Shape"></path>
            <path d="M86,46 L78,46 C76.9,46 76,45.1 76,44 C76,42.9 76.9,42 78,42 L86,42 C87.1,42 88,42.9 88,44 C88,45.1 87.1,46 86,46 L86,46 Z" id="Shape"></path>
            <path d="M10,46 L2,46 C0.896,46 0,45.1 0,44 C0,42.9 0.896,42 2,42 L10,42 C11.104,42 12,42.9 12,44 C12,45.1 11.104,46 10,46 L10,46 Z" id="Shape"></path>
            <path d="M75.108,79.108 C74.6,79.108 74.084,78.912 73.692,78.524 L66.092,70.924 C65.312,70.152 65.312,68.872 66.092,68.096 C66.868,67.324 68.14,67.324 68.92,68.096 L76.52,75.696 C77.3,76.468 77.3,77.752 76.52,78.524 C76.136,78.916 75.624,79.108 75.108,79.108 L75.108,79.108 Z" id="Shape"></path>
            <path d="M18.492,22.492 C17.98,22.492 17.468,22.296 17.076,21.908 L11.472,16.312 C10.692,15.54 10.692,14.256 11.472,13.484 C12.252,12.712 13.52,12.712 14.3,13.484 L19.904,19.08 C20.684,19.86 20.684,21.14 19.904,21.908 C19.512,22.296 19,22.492 18.492,22.492 L18.492,22.492 Z" id="Shape"></path>
            <path d="M68.092,21.08 C67.576,21.08 67.068,20.884 66.676,20.496 C65.9,19.72 65.9,18.444 66.676,17.668 L70.868,13.476 C71.648,12.696 72.916,12.696 73.696,13.476 C74.476,14.256 74.476,15.524 73.696,16.304 L69.504,20.496 C69.116,20.884 68.6,21.08 68.092,21.08 L68.092,21.08 Z" id="Shape"></path>
            <path d="M12.888,76.28 C12.376,76.28 11.864,76.084 11.472,75.696 C10.692,74.916 10.692,73.648 11.472,72.868 L17.664,66.68 C18.444,65.9 19.712,65.9 20.492,66.68 C21.272,67.46 21.272,68.728 20.492,69.508 L14.3,75.696 C13.912,76.084 13.4,76.28 12.888,76.28 L12.888,76.28 Z" id="Shape"></path>
        </g>
    </g>
</svg>