<?xml version="1.0" encoding="UTF-8" standalone="no"?>
<svg width="1237px" height="813px" viewBox="0 0 1237 813" version="1.1" xmlns="http://www.w3.org/2000/svg" xmlns:xlink="http://www.w3.org/1999/xlink">
    <!-- Generator: Sketch 3.6.1 (26313) - http://www.bohemiancoding.com/sketch -->
    <title>Group 2</title>
    <desc>Created with Sketch.</desc>
    <defs>
        <rect id="path-1" x="0" y="0" width="1237" height="820"></rect>
        <linearGradient x1="-2.06448739%" y1="55.1869679%" x2="50.787532%" y2="160.17439%" id="linearGradient-3">
            <stop stop-color="#FF9461" offset="0%"></stop>
            <stop stop-color="#F088FF" offset="100%"></stop>
        </linearGradient>
    </defs>
    <g id="Page-1" stroke="none" stroke-width="1" fill="none" fill-rule="evenodd">
        <g id="Group-2" transform="translate(0.000000, -7.000000)">
            <rect id="Rectangle-2" stroke="#979797" fill="#FFFFFF" x="0" y="7" width="1237" height="813"></rect>
            <g id="Group">
                <mask id="mask-2" fill="white">
                    <use xlink:href="#path-1"></use>
                </mask>
                <use id="Mask" xlink:href="#path-1"></use>
                <g mask="url(#mask-2)" id="Path-1" fill="url(#linearGradient-3)">
                    <g transform="translate(-410.971404, 169.797468)">
                        <path d="M214.742249,256.274536 L217.260642,888.115689 L1934.80531,886.159525 L1937.3237,447.978663 C1937.3237,447.978663 1476.45761,524.269081 992.925976,467.540308 C547.45516,415.276898 214.742249,256.274536 214.742249,256.274536 Z" opacity="0.377973414" style="mix-blend-mode: multiply;" transform="translate(1076.032976, 572.195112) scale(-1, 1) rotate(-2.000000) translate(-1076.032976, -572.195112) "></path>
                        <path d="M116.481116,208.264685 L118.828692,913.477698 L1719.87531,911.294376 L1722.22288,422.230243 C1722.22288,422.230243 1292.61653,507.379802 841.882003,444.063463 C426.626693,385.731021 116.481116,208.264685 116.481116,208.264685 Z" opacity="0.377973414" style="mix-blend-mode: multiply;" transform="translate(919.352000, 560.871191) scale(-1, 1) rotate(-16.000000) translate(-919.352000, -560.871191) "></path>
                        <path d="M36.9787449,237.995699 L39.7176667,826.43652 L1907.66236,824.614722 L1910.40128,416.531923 C1910.40128,416.531923 1409.17858,487.582054 883.305591,434.749905 C398.826287,386.076399 36.9787449,237.995699 36.9787449,237.995699 Z" opacity="0.314190765" style="mix-blend-mode: multiply;" transform="translate(973.690012, 532.216110) scale(-1, 1) rotate(-10.000000) translate(-973.690012, -532.216110) "></path>
                        <path d="M356.92223,275.257737 L359.024893,1121.8948 L1793.04106,1119.27363 L1795.14372,532.13214 C1795.14372,532.13214 1410.35639,634.357668 1006.6451,558.343814 C634.711624,488.313332 356.92223,275.257737 356.92223,275.257737 Z" opacity="0.505655317" style="mix-blend-mode: multiply;" transform="translate(1076.032976, 698.576269) scale(-1, 1) rotate(-9.000000) translate(-1076.032976, -698.576269) "></path>
                        <path d="M270.000383,263.344553 L272.126553,1035.3866 L1722.17456,1032.99637 L1724.30073,497.586412 C1724.30073,497.586412 1335.2116,590.80511 926.986945,521.488642 C550.895374,457.628366 270.000383,263.344553 270.000383,263.344553 Z" opacity="0.314190765" style="mix-blend-mode: multiply;" transform="translate(997.150558, 649.365575) scale(-1, 1) rotate(-358.000000) translate(-997.150558, -649.365575) "></path>
                    </g>
                </g>
            </g>
        </g>
    </g>
</svg>