<?xml version="1.0" encoding="UTF-8" standalone="no"?>
<svg width="90px" height="85px" viewBox="0 0 90 85" version="1.1" xmlns="http://www.w3.org/2000/svg" xmlns:xlink="http://www.w3.org/1999/xlink">
    <!-- Generator: Sketch 3.6.1 (26313) - http://www.bohemiancoding.com/sketch -->
    <title>Shape</title>
    <desc>Created with Sketch.</desc>
    <defs></defs>
    <g id="Page-1" stroke="none" stroke-width="1" fill="none" fill-rule="evenodd" opacity="0.918027052">
        <g id="noun_548459_cc" fill="#D62F2F">
            <g id="Group" transform="translate(0.000000, 0.637820)">
                <g transform="translate(0.000000, 0.356280)" id="Shape">
                    <path d="M1.984252,0 C0.70866142,0 0,1.0984252 0,2.019685 L0,10.027559 C0,11.055118 0.95669291,12.011811 1.984252,12.011811 L5.988189,12.011811 L5.988189,61.015748 C5.988189,62.645669 7.3700787,64.027559 9,64.027559 L43.015748,64.027559 L43.015748,70.334645 C40.110236,71.185039 37.984252,73.877952 37.984252,76.996062 C37.984252,80.858267 41.173228,84.01181 45,84.01181 C48.826772,84.01181 52.015748,80.858267 52.015748,76.996062 C52.015748,73.877952 49.889764,71.185039 46.984252,70.334645 L46.984252,64.027559 L81,64.027559 C82.629921,64.027559 84.011811,62.645669 84.011811,61.015748 L84.011811,12.011811 L88.015748,12.011811 C89.043307,12.011811 90,11.055118 90,10.027559 L90,2.019685 C90,0.95669291 89.043307,0 88.015748,0 L1.984252,0 L1.984252,0 Z M4.003937,4.003937 L85.996063,4.003937 L85.996063,8.0078739 L4.003937,8.0078739 L4.003937,4.003937 L4.003937,4.003937 Z M9.992126,12.011811 L80.007874,12.011811 L80.007874,60.023622 L9.992126,60.023622 L9.992126,12.011811 L9.992126,12.011811 Z M45,19.027559 C43.370079,19.027559 42.023622,20.338583 41.988189,21.968504 C42.34252,29.161417 42.69685,36.566929 43.015748,43.051181 C43.015748,44.149606 43.901575,45 45,45 C46.098425,45 46.984252,44.149606 46.984252,43.051181 C47.338583,36.035433 47.65748,29.019685 48.011811,22.003937 C48.011811,20.338583 46.665354,19.027559 45,19.027559 L45,19.027559 Z M45,47.019685 C43.334646,47.019685 41.988189,48.366141 41.988189,49.996063 C41.988189,51.661417 43.334646,53.007874 45,53.007874 C46.665354,53.007874 48.011811,51.661417 48.011811,49.996063 C48.011811,48.366141 46.665354,47.019685 45,47.019685 L45,47.019685 Z M45,74.019684 C46.665354,74.019684 48.011811,75.330708 48.011811,76.996062 C48.011811,78.69685 46.665354,80.007873 45,80.007873 C43.334646,80.007873 41.988189,78.69685 41.988189,76.996062 C41.988189,75.330708 43.334646,74.019684 45,74.019684 L45,74.019684 Z"></path>
                </g>
            </g>
        </g>
    </g>
</svg>