<?xml version="1.0" encoding="UTF-8" standalone="no"?>
<svg width="50px" height="42px" viewBox="0 0 50 42" version="1.1" xmlns="http://www.w3.org/2000/svg" xmlns:xlink="http://www.w3.org/1999/xlink">
    <!-- Generator: Sketch 3.6.1 (26313) - http://www.bohemiancoding.com/sketch -->
    <title>noun_478755_cc</title>
    <desc>Created with Sketch.</desc>
    <defs></defs>
    <g id="Page-1" stroke="none" stroke-width="1" fill="none" fill-rule="evenodd">
        <g id="noun_478755_cc" fill="#FFFFFF">
            <g id="Group">
                <path d="M25.626,25.383 C24.23,19.628 19.09,15.537 13.082,15.537 C5.961,15.537 0.168,21.33 0.168,28.451 C0.168,35.572 5.961,41.365 13.082,41.365 C15.494,41.365 17.817,40.704 19.852,39.447 C21.293,40.675 23.139,41.365 25.038,41.365 C29.45,41.365 33.04,37.776 33.04,33.364 C33.039,29.149 29.764,25.686 25.626,25.383 L25.626,25.383 Z M25.037,39.257 C23.394,39.257 21.867,38.592 20.738,37.384 C20.532,37.164 20.252,37.05 19.968,37.05 C19.755,37.05 19.54,37.114 19.355,37.247 C17.515,38.562 15.345,39.257 13.082,39.257 C7.123,39.257 2.275,34.409 2.275,28.45 C2.275,22.491 7.123,17.643 13.082,17.643 C18.359,17.643 22.837,21.413 23.728,26.607 C23.818,27.128 24.273,27.505 24.808,27.481 L24.95,27.473 C24.979,27.471 25.008,27.468 25.037,27.468 C28.287,27.468 30.932,30.113 30.932,33.363 C30.932,36.613 28.287,39.257 25.037,39.257 L25.037,39.257 Z" id="Shape"></path>
                <path d="M28.747,8.818 C25.299,8.818 22.055,10.161 19.615,12.601 C19.204,13.013 19.204,13.68 19.615,14.091 C20.027,14.503 20.694,14.503 21.105,14.091 C23.146,12.049 25.861,10.925 28.747,10.925 C34.707,10.925 39.555,15.773 39.555,21.733 C39.555,25.154 37.987,28.299 35.252,30.364 C34.787,30.715 34.695,31.375 35.045,31.84 C35.252,32.114 35.568,32.258 35.887,32.258 C36.108,32.258 36.33,32.189 36.521,32.046 C39.788,29.58 41.662,25.821 41.662,21.734 C41.661,14.611 35.868,8.818 28.747,8.818 L28.747,8.818 Z" id="Shape"></path>
                <path d="M28.747,7.842 C29.329,7.842 29.801,7.37 29.801,6.789 L29.801,1.695 C29.801,1.113 29.329,0.642 28.747,0.642 C28.166,0.642 27.693,1.113 27.693,1.695 L27.693,6.789 C27.693,7.371 28.166,7.842 28.747,7.842 L28.747,7.842 Z" id="Shape"></path>
                <path d="M48.784,20.678 L43.689,20.678 C43.108,20.678 42.636,21.15 42.636,21.732 C42.636,22.314 43.108,22.785 43.689,22.785 L48.784,22.785 C49.365,22.785 49.838,22.313 49.838,21.732 C49.838,21.15 49.365,20.678 48.784,20.678 L48.784,20.678 Z" id="Shape"></path>
                <path d="M17.438,11.911 C17.643,12.117 17.913,12.22 18.182,12.22 C18.451,12.22 18.721,12.117 18.927,11.911 C19.338,11.5 19.338,10.832 18.927,10.421 L15.324,6.818 C14.913,6.406 14.245,6.406 13.834,6.818 C13.423,7.229 13.423,7.896 13.834,8.308 L17.438,11.911 L17.438,11.911 Z" id="Shape"></path>
                <path d="M40.059,31.553 C39.647,31.142 38.98,31.142 38.569,31.553 C38.157,31.965 38.157,32.632 38.569,33.043 L42.171,36.645 C42.378,36.85 42.648,36.953 42.917,36.953 C43.186,36.953 43.456,36.85 43.661,36.644 C44.073,36.232 44.073,35.566 43.661,35.154 L40.059,31.553 L40.059,31.553 Z" id="Shape"></path>
                <path d="M39.313,12.219 C39.582,12.219 39.852,12.116 40.058,11.91 L43.66,8.307 C44.072,7.895 44.072,7.228 43.66,6.817 C43.248,6.406 42.582,6.406 42.17,6.817 L38.568,10.42 C38.156,10.832 38.156,11.499 38.568,11.91 C38.774,12.116 39.044,12.219 39.313,12.219 L39.313,12.219 Z" id="Shape"></path>
            </g>
        </g>
    </g>
</svg>