<?xml version="1.0" encoding="UTF-8" standalone="no"?>
<svg width="96px" height="92px" viewBox="0 0 96 92" version="1.1" xmlns="http://www.w3.org/2000/svg" xmlns:xlink="http://www.w3.org/1999/xlink">
    <!-- Generator: Sketch 3.6.1 (26313) - http://www.bohemiancoding.com/sketch -->
    <title>noun_68922_cc</title>
    <desc>Created with Sketch.</desc>
    <defs></defs>
    <g id="Page-1" stroke="none" stroke-width="1" fill="none" fill-rule="evenodd">
        <g id="noun_68922_cc" fill="#000000">
            <path d="M2,92 C0.9,92 0,91.1 0,90 L0,2 C0,0.9 0.9,0 2,0 C3.1,0 4,0.9 4,2 L4,90 C4,91.1 3.1,92 2,92 L2,92 Z" id="Shape"></path>
            <path d="M10,50 C9.504,50 9.024,49.816 8.656,49.48 C8.244,49.1 8,48.564 8,48 L8,4 C8,3.436 8.244,2.9 8.656,2.52 C9.068,2.14 9.584,1.96 10.192,2.008 L94.192,10.008 C95.22,10.1 96,10.968 96,12 L96,40 C96,41.032 95.22,41.9 94.192,41.992 L10.192,49.992 C10.124,50 10.064,50 10,50 L10,50 Z M12,6.2 L12,45.796 L92,38.18 L92,13.82 L12,6.2 L12,6.2 Z" id="Shape"></path>
            <path d="M22,48 C20.9,48 20,47.1 20,46 L20,6 C20,4.9 20.9,4 22,4 C23.1,4 24,4.9 24,6 L24,46 C24,47.1 23.1,48 22,48 L22,48 Z" id="Shape"></path>
            <path d="M32,6 L36,6 L36,46 L32,46 L32,6 L32,6 Z" id="Shape"></path>
            <path d="M44,6 L48,6 L48,46 L44,46 L44,6 L44,6 Z" id="Shape"></path>
            <path d="M56,10 L60,10 L60,42 L56,42 L56,10 L56,10 Z" id="Shape"></path>
            <path d="M68,10 L72,10 L72,42 L68,42 L68,10 L68,10 Z" id="Shape"></path>
            <path d="M80,10 L84,10 L84,42 L80,42 L80,10 L80,10 Z" id="Shape"></path>
        </g>
    </g>
</svg>