<?xml version="1.0" encoding="UTF-8"?>
<svg width="100px" height="37px" viewBox="0 0 100 37" version="1.1" xmlns="http://www.w3.org/2000/svg" xmlns:xlink="http://www.w3.org/1999/xlink">
    <!-- Generator: Sketch 3.6.1 (26313) - http://www.bohemiancoding.com/sketch -->
    <title>noun_90827_cc</title>
    <desc>Created with Sketch.</desc>
    <defs></defs>
    <g id="Page-1" stroke="none" stroke-width="1" fill="none" fill-rule="evenodd">
        <g id="noun_90827_cc" fill="#000000">
            <path d="M99.990625,11.6785455 C99.9875,11.5524091 99.971875,11.4279545 99.95625,11.3001364 C99.9421875,11.1992273 99.93125,11.1016818 99.9109375,11.0041364 C99.8875,10.8981818 99.8546875,10.7972727 99.821875,10.6963636 C99.7875,10.5836818 99.75,10.471 99.7046875,10.3633636 C99.690625,10.3314091 99.6859375,10.2994545 99.671875,10.2675 C99.6421875,10.2052727 99.6015625,10.1531364 99.5703125,10.0925909 C99.515625,9.99 99.4609375,9.89245455 99.396875,9.79659091 C99.3359375,9.70409091 99.2671875,9.62168182 99.1984375,9.53759091 C99.134375,9.46022727 99.071875,9.38622727 99.0015625,9.31727273 C98.921875,9.23654545 98.8375,9.16254545 98.75,9.09359091 C98.6765625,9.03304545 98.603125,8.97586364 98.5234375,8.92204545 C98.4328125,8.8615 98.3390625,8.80936364 98.2421875,8.75722727 C98.15625,8.7135 98.071875,8.66977273 97.9828125,8.63445455 C97.88125,8.59240909 97.7765625,8.56045455 97.671875,8.5285 C97.5828125,8.50327273 97.496875,8.47972727 97.4046875,8.46290909 C97.2859375,8.44104545 97.1671875,8.43095455 97.046875,8.42422727 C96.9875,8.42422727 96.9328125,8.40909091 96.875,8.40909091 L90.625,8.40909091 C90.625,3.77231818 87.1203125,0 82.8125,0 L60.9390625,0 C58.8046875,0 56.746875,0.948545455 55.296875,2.60513636 C54.828125,3.13827273 54.465625,3.74204545 54.153125,4.36768182 C52.871875,3.73363636 51.4609375,3.36363636 49.9984375,3.36363636 C48.534375,3.36363636 47.128125,3.73363636 45.85,4.36768182 C45.5375,3.74036364 45.1734375,3.13995455 44.70625,2.60513636 C43.2546875,0.948545455 41.196875,0 39.0625,0 L17.1890625,0 C12.88125,0 9.3765625,3.77231818 9.3765625,8.40909091 L3.125,8.40909091 C3.0640625,8.40909091 3.00625,8.42590909 2.9453125,8.42927273 C2.83125,8.436 2.7171875,8.44609091 2.6046875,8.46459091 C2.5046875,8.48309091 2.4109375,8.50831818 2.315625,8.53690909 C2.2171875,8.5655 2.121875,8.59409091 2.028125,8.63445455 C1.9296875,8.67313636 1.8390625,8.72022727 1.746875,8.76731818 C1.6578125,8.81440909 1.571875,8.86486364 1.4859375,8.92036364 C1.4,8.97754545 1.321875,9.03977273 1.2421875,9.10368182 C1.1609375,9.17095455 1.08125,9.23822727 1.00625,9.31390909 C0.9328125,9.38790909 0.865625,9.46527273 0.8,9.546 C0.7328125,9.62840909 0.6671875,9.70913636 0.6078125,9.79659091 C0.5421875,9.89245455 0.4875,9.99168182 0.4328125,10.0959545 C0.4,10.1548182 0.359375,10.2069545 0.3296875,10.2691818 C0.3140625,10.3011364 0.309375,10.3330909 0.296875,10.3650455 C0.2515625,10.4726818 0.2140625,10.5853636 0.1796875,10.6980455 C0.146875,10.7989545 0.1140625,10.9015455 0.090625,11.0058182 C0.06875,11.1050455 0.0578125,11.2059545 0.0453125,11.3068636 C0.028125,11.4313182 0.0125,11.5540909 0.0109375,11.6785455 C0.0078125,11.7088182 0,11.7390909 0,11.7727273 C0,11.8383182 0.015625,11.9005455 0.01875,11.9661364 C0.025,12.0889091 0.034375,12.2116818 0.0515625,12.3327727 C0.06875,12.4387273 0.0921875,12.5396364 0.11875,12.6439091 C0.1453125,12.7498636 0.171875,12.8524545 0.209375,12.9533636 C0.2453125,13.0576364 0.2875,13.1551818 0.3328125,13.2544091 C0.3765625,13.3519545 0.4234375,13.4444545 0.475,13.5369545 C0.528125,13.6277727 0.584375,13.7118636 0.64375,13.7976364 C0.70625,13.8867727 0.7703125,13.9708636 0.840625,14.0532727 C0.9078125,14.1323182 0.98125,14.2046364 1.05625,14.2752727 C1.13125,14.3475909 1.2078125,14.4182273 1.2890625,14.4821364 C1.378125,14.5527727 1.4703125,14.6116364 1.5671875,14.6721818 C1.621875,14.7041364 1.6703125,14.7495455 1.728125,14.7798182 L9.396875,18.9053182 C9.6,28.9188636 17.215625,37 26.5640625,37 C34.3578125,37 43.734375,32.8644091 46.228125,14.1777273 C46.246875,14.0902727 46.2515625,14.0011364 46.2609375,13.912 C46.309375,13.5335909 46.3625,13.1652727 46.4046875,12.7750909 C46.803125,11.3388182 48.3859375,10.0909091 49.9984375,10.0909091 C51.6125,10.0909091 53.1984375,11.3388182 53.596875,12.7750909 C53.6390625,13.1635909 53.6921875,13.5335909 53.740625,13.912 C53.7515625,14.0011364 53.75625,14.0902727 53.7734375,14.1777273 C56.2671875,32.8644091 65.64375,37 73.4375,37 C82.7859375,37 90.4015625,28.9188636 90.6046875,18.907 L98.271875,14.7815 C98.3296875,14.7495455 98.3765625,14.7058182 98.434375,14.6705 C98.5296875,14.6116364 98.621875,14.5527727 98.7109375,14.4838182 C98.7953125,14.4182273 98.871875,14.3459091 98.946875,14.2719091 C99.0203125,14.2029545 99.090625,14.1323182 99.1578125,14.0566364 C99.23125,13.9708636 99.296875,13.8834091 99.3609375,13.7909091 C99.4171875,13.7101818 99.471875,13.6277727 99.5234375,13.542 C99.578125,13.4461364 99.625,13.3485909 99.671875,13.2476818 C99.715625,13.1518182 99.7578125,13.0576364 99.790625,12.9584091 C99.828125,12.8524545 99.8578125,12.7448182 99.884375,12.6355 C99.909375,12.5362727 99.9328125,12.4387273 99.9484375,12.3361364 C99.96875,12.2116818 99.978125,12.0889091 99.9828125,11.9610909 C99.9859375,11.8971818 100,11.8366364 100,11.7727273 C100,11.7390909 99.9921875,11.7105 99.990625,11.6785455 L99.990625,11.6785455 Z M28.771875,12.469 L20.959375,20.8780909 C20.3484375,21.5356818 19.55,21.8636364 18.75,21.8636364 C17.95,21.8636364 17.1515625,21.5356818 16.540625,20.8780909 C15.3203125,19.5645909 15.3203125,17.4354091 16.540625,16.1219091 L24.353125,7.71281818 C25.5734375,6.39931818 27.5515625,6.39931818 28.771875,7.71281818 C29.9921875,9.02631818 29.9921875,11.1555 28.771875,12.469 L28.771875,12.469 Z M74.084375,12.469 L66.271875,20.8780909 C65.6609375,21.5356818 64.8625,21.8636364 64.0625,21.8636364 C63.2625,21.8636364 62.4640625,21.5356818 61.853125,20.8780909 C60.6328125,19.5645909 60.6328125,17.4354091 61.853125,16.1219091 L69.665625,7.71281818 C70.8859375,6.39931818 72.8640625,6.39931818 74.084375,7.71281818 C75.3046875,9.02631818 75.3046875,11.1555 74.084375,12.469 L74.084375,12.469 Z" id="Shape"></path>
        </g>
    </g>
</svg>