<?xml version="1.0" encoding="UTF-8"?>
<svg width="95px" height="73px" viewBox="0 0 95 73" version="1.1" xmlns="http://www.w3.org/2000/svg" xmlns:xlink="http://www.w3.org/1999/xlink">
    <!-- Generator: Sketch 3.6.1 (26313) - http://www.bohemiancoding.com/sketch -->
    <title>noun_174297_cc</title>
    <desc>Created with Sketch.</desc>
    <defs></defs>
    <g id="Page-1" stroke="none" stroke-width="1" fill="none" fill-rule="evenodd">
        <g id="noun_174297_cc" fill="#000000">
            <path d="M78.0357143,34.3297297 C78.0357143,33.2445946 77.2602041,32.4554054 76.1938776,32.4554054 L75.0306122,32.4554054 C72.8010204,32.4554054 71.25,35.0202703 71.25,35.0202703 C71.1530612,35.3162162 70.8622449,35.6121622 70.5714286,36.1054054 C70.2806122,35.1189189 70.0867347,34.3297297 69.8928571,33.5405405 C68.9234694,30.0878378 67.4693878,26.9310811 65.4336735,23.9716216 C64.0765306,21.9 62.0408163,21.2094595 59.7142857,20.8148649 C55.6428571,20.1243243 51.5714286,20.0256757 47.4030612,20.0256757 C43.3316327,20.0256757 39.1632653,20.0256757 35.0918367,20.8148649 C32.8622449,21.2094595 30.8265306,21.9986486 29.372449,23.9716216 C27.3367347,26.9310811 25.8826531,30.0878378 24.9132653,33.5405405 C24.7193878,34.3297297 24.5255102,35.1189189 24.2346939,36.1054054 C23.9438776,35.6121622 23.75,35.3162162 23.5561224,35.0202703 C23.5561224,35.0202703 22.005102,32.4554054 19.7755102,32.4554054 L18.6122449,32.4554054 C17.5459184,32.4554054 16.8673469,33.2445946 16.7704082,34.3297297 L16.7704082,36.6972973 C16.7704082,37.8810811 17.5459184,38.6702703 18.7091837,38.6702703 L22.1020408,38.6702703 L23.4591837,38.6702703 C23.4591837,38.7689189 23.5561224,38.7689189 23.5561224,38.8675676 C23.4591837,38.9662162 23.2653061,38.9662162 23.1683673,39.1635135 C20.2602041,42.0243243 18.7091837,45.477027 18.8061224,49.5216216 C18.8061224,51.9878378 19.0969388,54.4540541 19.2908163,56.9202703 C19.4846939,58.7945946 19.9693878,60.6689189 20.744898,62.3459459 C21.1326531,63.0364865 21.5204082,63.6283784 22.3928571,63.8256757 C22.7806122,63.9243243 22.877551,64.1216216 22.7806122,64.5162162 L22.7806122,67.5743243 C22.7806122,68.9554054 23.5561224,69.8432432 25.0102041,69.8432432 L28.5969388,69.8432432 C30.1479592,69.8432432 30.9234694,69.0540541 30.9234694,67.4756757 L30.9234694,65.0094595 C36.3520408,65.4040541 41.7806122,65.6013514 47.3061224,65.6013514 C52.8316327,65.6013514 58.1632653,65.4040541 63.6887755,65.0094595 L63.6887755,67.4756757 C63.6887755,69.0540541 64.4642857,69.8432432 66.0153061,69.8432432 L69.6020408,69.8432432 C70.9591837,69.8432432 71.8316327,68.9554054 71.8316327,67.5743243 L71.8316327,64.5162162 C71.8316327,64.2202703 71.8316327,63.9243243 72.2193878,63.8256757 C73.0918367,63.6283784 73.4795918,63.1351351 73.8673469,62.3459459 C74.7397959,60.5702703 75.127551,58.7945946 75.3214286,56.9202703 C75.6122449,54.4540541 75.8061224,51.9878378 75.8061224,49.5216216 C75.9030612,45.3783784 74.255102,41.9256757 71.4438776,39.1635135 C71.3469388,39.0648649 71.1530612,38.9662162 71.0561224,38.8675676 C71.0561224,38.7689189 71.1530612,38.7689189 71.1530612,38.6702703 L72.5102041,38.6702703 L75.9030612,38.6702703 C77.0663265,38.6702703 77.8418367,37.8810811 77.8418367,36.6972973 C78.0357143,35.9081081 78.0357143,35.1189189 78.0357143,34.3297297 L78.0357143,34.3297297 Z M27.8214286,36.6972973 C28.6938776,33.0472973 30.0510204,29.4959459 31.9897959,26.2405405 C32.0867347,26.0432432 32.1836735,25.9445946 32.377551,25.8459459 L32.377551,25.8459459 L32.377551,25.8459459 C32.4744898,25.7472973 32.6683673,25.6486486 32.8622449,25.55 C34.0255102,25.0567568 37.7091837,23.872973 47.5,23.872973 C57.2908163,23.9716216 60.877551,25.0567568 62.1377551,25.55 C62.3316327,25.6486486 62.5255102,25.6486486 62.622449,25.8459459 L62.622449,25.8459459 L62.622449,25.8459459 C62.7193878,25.9445946 62.9132653,26.1418919 63.0102041,26.2405405 C64.9489796,29.4959459 66.3061224,33.0472973 67.1785714,36.6972973 C67.2755102,36.9932432 67.2755102,37.1905405 67.2755102,37.3878378 C60.6836735,36.7959459 54.0918367,36.5 47.5,36.5 C40.9081633,36.5 34.3163265,36.7959459 27.7244898,37.3878378 C27.8214286,37.2891892 27.8214286,36.9932432 27.8214286,36.6972973 L27.8214286,36.6972973 Z M28.8877551,52.4810811 C26.4642857,52.4810811 24.622449,50.5081081 24.622449,48.1405405 C24.622449,45.772973 26.5612245,43.8 28.8877551,43.8 C31.2142857,43.8 33.1530612,45.772973 33.1530612,48.1405405 C33.1530612,50.5081081 31.3112245,52.4810811 28.8877551,52.4810811 L28.8877551,52.4810811 Z M66.1122449,52.4810811 C63.6887755,52.4810811 61.8469388,50.5081081 61.8469388,48.1405405 C61.8469388,45.772973 63.7857143,43.8 66.1122449,43.8 C68.5357143,43.8 70.377551,45.772973 70.377551,48.1405405 C70.377551,50.5081081 68.4387755,52.4810811 66.1122449,52.4810811 L66.1122449,52.4810811 Z M93.255102,72.1121622 L90.8316327,72.1121622 C89.8622449,72.1121622 89.0867347,71.322973 89.0867347,70.3364865 L89.0867347,17.4608108 C89.0867347,11.6405405 84.4336735,6.90540541 78.7142857,6.90540541 L16.2857143,6.90540541 C10.5663265,6.90540541 5.91326531,11.6405405 5.91326531,17.4608108 L5.91326531,70.3364865 C5.91326531,71.322973 5.1377551,72.1121622 4.16836735,72.1121622 L1.74489796,72.1121622 C0.775510204,72.1121622 0,71.322973 0,70.3364865 L0,17.4608108 C0,8.28648649 7.27040816,0.887837838 16.2857143,0.887837838 L78.7142857,0.887837838 C87.7295918,0.887837838 95,8.28648649 95,17.4608108 L95,70.3364865 C95,71.322973 94.2244898,72.1121622 93.255102,72.1121622 L93.255102,72.1121622 Z" id="Shape"></path>
        </g>
    </g>
</svg>